<?xml version="1.0" encoding="UTF-8" standalone="no"?>
<svg
   xmlns:dc="http://purl.org/dc/elements/1.1/"
   xmlns:cc="http://creativecommons.org/ns#"
   xmlns:rdf="http://www.w3.org/1999/02/22-rdf-syntax-ns#"
   xmlns:svg="http://www.w3.org/2000/svg"
   xmlns="http://www.w3.org/2000/svg"
   xmlns:sodipodi="http://sodipodi.sourceforge.net/DTD/sodipodi-0.dtd"
   xmlns:inkscape="http://www.inkscape.org/namespaces/inkscape"
   width="24"
   height="24"
   viewBox="0 0 24 24"
   version="1.1"
   id="svg1076"
   sodipodi:docname="action_update_settings.svg"
   inkscape:version="0.92.3 (2405546, 2018-03-11)">
  <metadata
     id="metadata1082">
    <rdf:RDF>
      <cc:Work
         rdf:about="">
        <dc:format>image/svg+xml</dc:format>
        <dc:type
           rdf:resource="http://purl.org/dc/dcmitype/StillImage" />
      </cc:Work>
    </rdf:RDF>
  </metadata>
  <defs
     id="defs1080" />
  <sodipodi:namedview
     pagecolor="#ffffff"
     bordercolor="#666666"
     borderopacity="1"
     objecttolerance="10"
     gridtolerance="10"
     guidetolerance="10"
     inkscape:pageopacity="0"
     inkscape:pageshadow="2"
     inkscape:window-width="2493"
     inkscape:window-height="1376"
     id="namedview1078"
     showgrid="false"
     inkscape:zoom="17.559818"
     inkscape:cx="24.343035"
     inkscape:cy="8.0690027"
     inkscape:window-x="67"
     inkscape:window-y="27"
     inkscape:window-maximized="1"
     inkscape:current-layer="svg1076" />
  <path
     fill="none"
     d="M0 0h24v24H0V0z"
     id="path1072" />
  <path
     style="fill:#000000"
     d="m 12.000002,6.0000008 -1e-6,3.0000011 4,-4.000001 -4,-4 v 3.0000009 c -4.4200001,-2e-7 -7.9999999,3.5799997 -7.9999997,7.9999992 -2e-7,1.57 0.46,3.030001 1.2399995,4.26 l 1.46,-1.46 c -0.4499997,-0.83 -0.6999995,-1.789999 -0.6999995,-2.799999 1e-7,-3.3100006 2.6899998,-6.0000002 6.0000007,-6.0000012 z"
     id="path2454" />
  <path
     inkscape:connector-curvature="0"
     d="m 20.459327,16.588 c 0.024,-0.192 0.042,-0.384 0.042,-0.588 0,-0.204 -0.018,-0.396 -0.042,-0.588 l 1.266,-0.99 c 0.114,-0.09 0.144,-0.252 0.072,-0.384 l -1.2,-2.076 c -0.072,-0.132 -0.234,-0.18 -0.366,-0.132 l -1.494,0.6 c -0.312002,-0.24 -0.648,-0.438 -1.014,-0.588 l -0.228002,-1.59 C 17.477325,10.108 17.351327,10 17.201325,10 h -2.399998 c -0.150002,0 -0.276,0.108 -0.294,0.252 l -0.228002,1.59 c -0.366,0.15 -0.701998,0.353999 -1.014,0.588 l -1.494,-0.6 c -0.138,-0.054 -0.294,0 -0.366,0.132 l -1.200001,2.076 c -0.078,0.132 -0.042,0.294 0.072,0.384 l 1.266,0.99 c -0.024,0.192 -0.042,0.39 -0.042,0.588 0,0.198 0.018,0.396 0.042,0.588 l -1.266,0.99 c -0.114,0.09 -0.144002,0.252 -0.072,0.384 l 1.200001,2.076 c 0.072,0.132 0.234,0.18 0.366,0.132 l 1.494,-0.6 c 0.312002,0.24 0.648,0.438 1.014,0.588 l 0.228002,1.59 c 0.018,0.144 0.143998,0.252 0.294,0.252 h 2.399998 c 0.150002,0 0.276,-0.108 0.294,-0.252 l 0.228002,-1.59 c 0.366,-0.15 0.701998,-0.353999 1.014,-0.588 l 1.494,0.6 c 0.138,0.054 0.294,0 0.366,-0.132 l 1.199998,-2.076 c 0.072,-0.132 0.042,-0.294 -0.072,-0.384 z m -4.458,1.512 c -1.158002,0 -2.100002,-0.942 -2.100002,-2.1 0,-1.158 0.942,-2.1 2.100002,-2.1 1.158,0 2.1,0.942 2.1,2.1 0,1.158 -0.942,2.1 -2.1,2.1 z"
     id="path2431"
     style="stroke:none;stroke-width:2.66666675;stroke-miterlimit:4;stroke-dasharray:none" />
</svg>
