<?xml version="1.0" encoding="UTF-8" standalone="no"?>
<svg
   xmlns:dc="http://purl.org/dc/elements/1.1/"
   xmlns:cc="http://creativecommons.org/ns#"
   xmlns:rdf="http://www.w3.org/1999/02/22-rdf-syntax-ns#"
   xmlns:svg="http://www.w3.org/2000/svg"
   xmlns="http://www.w3.org/2000/svg"
   xmlns:sodipodi="http://sodipodi.sourceforge.net/DTD/sodipodi-0.dtd"
   xmlns:inkscape="http://www.inkscape.org/namespaces/inkscape"
   width="24"
   height="24"
   viewBox="0 0 24 24"
   version="1.1"
   id="svg1253"
   sodipodi:docname="action_add_rule.svg"
   inkscape:version="0.92.4 (5da689c313, 2019-01-14)">
  <metadata
     id="metadata1259">
    <rdf:RDF>
      <cc:Work
         rdf:about="">
        <dc:format>image/svg+xml</dc:format>
        <dc:type
           rdf:resource="http://purl.org/dc/dcmitype/StillImage" />
        <dc:title></dc:title>
      </cc:Work>
    </rdf:RDF>
  </metadata>
  <defs
     id="defs1257" />
  <sodipodi:namedview
     pagecolor="#ffffff"
     bordercolor="#666666"
     borderopacity="1"
     objecttolerance="10"
     gridtolerance="10"
     guidetolerance="10"
     inkscape:pageopacity="0"
     inkscape:pageshadow="2"
     inkscape:window-width="2560"
     inkscape:window-height="1376"
     id="namedview1255"
     showgrid="false"
     showguides="true"
     inkscape:guide-bbox="true"
     inkscape:zoom="49.666667"
     inkscape:cx="11.395973"
     inkscape:cy="12"
     inkscape:window-x="0"
     inkscape:window-y="27"
     inkscape:window-maximized="1"
     inkscape:current-layer="svg1253"
     inkscape:showpageshadow="false"
     borderlayer="true"
     inkscape:pagecheckerboard="true">
    <sodipodi:guide
       position="2,22"
       orientation="1,0"
       id="guide5606"
       inkscape:locked="false" />
    <sodipodi:guide
       inkscape:locked="false"
       id="guide5608"
       orientation="1,0"
       position="22,2" />
    <sodipodi:guide
       position="2,22"
       orientation="0,1"
       id="guide5610"
       inkscape:locked="false" />
    <sodipodi:guide
       position="22,2"
       orientation="0,1"
       id="guide5612"
       inkscape:locked="false" />
    <sodipodi:guide
       position="11,11"
       orientation="1,0"
       id="guide1473"
       inkscape:locked="false" />
    <sodipodi:guide
       position="13,13"
       orientation="1,0"
       id="guide1475"
       inkscape:locked="false" />
    <sodipodi:guide
       position="17,13"
       orientation="1,0"
       id="guide1477"
       inkscape:locked="false" />
    <sodipodi:guide
       position="7,11"
       orientation="1,0"
       id="guide1479"
       inkscape:locked="false" />
    <sodipodi:guide
       position="11,17"
       orientation="0,1"
       id="guide1481"
       inkscape:locked="false" />
    <sodipodi:guide
       position="13,7"
       orientation="0,1"
       id="guide1483"
       inkscape:locked="false" />
  </sodipodi:namedview>
  <path
     style="opacity:1;fill:#000000;fill-opacity:1;stroke:none;stroke-width:0.94406873;stroke-linecap:butt;stroke-linejoin:round;stroke-miterlimit:4;stroke-dasharray:none;stroke-dashoffset:0;stroke-opacity:1;paint-order:normal"
     d="M 12.013672 1.9394531 A 10.070066 10.070066 0 0 0 11.40625 1.9609375 L 11.005859 3.8984375 A 8.1819289 8.1819289 0 0 0 7.7421875 5.0390625 L 6.2285156 3.78125 A 10.070066 10.070066 0 0 0 3.7792969 6.2207031 L 5.0429688 7.7421875 A 8.1819289 8.1819289 0 0 0 3.9023438 11.001953 L 1.9726562 11.402344 A 10.070066 10.070066 0 0 0 1.9433594 12.009766 A 10.070066 10.070066 0 0 0 2.3535156 14.837891 L 4.328125 14.796875 A 8.1819289 8.1819289 0 0 0 6.1640625 17.730469 L 5.2773438 19.480469 A 10.070066 10.070066 0 0 0 8.2011719 21.324219 L 9.4023438 19.753906 A 8.1819289 8.1819289 0 0 0 12.013672 20.191406 A 8.1819289 8.1819289 0 0 0 12.837891 20.142578 L 13.658203 21.939453 A 10.070066 10.070066 0 0 0 16.917969 20.791016 L 16.443359 18.886719 A 8.1819289 8.1819289 0 0 0 18.884766 16.4375 L 20.804688 16.916016 A 10.070066 10.070066 0 0 0 21.935547 13.650391 L 20.150391 12.835938 A 8.1819289 8.1819289 0 0 0 20.195312 12.009766 A 8.1819289 8.1819289 0 0 0 19.757812 9.3984375 L 21.326172 8.1992188 A 10.070066 10.070066 0 0 0 19.484375 5.2753906 L 17.726562 6.1660156 A 8.1819289 8.1819289 0 0 0 14.800781 4.3300781 L 14.839844 2.3535156 A 10.070066 10.070066 0 0 0 12.013672 1.9394531 z M 11 7 L 13 7 L 13 11 L 17 11 L 17 13 L 13 13 L 13 17 L 11 17 L 11 13 L 7 13 L 7 11 L 11 11 L 11 7 z "
     id="path1487" />
</svg>
