<?xml version="1.0" encoding="UTF-8" standalone="no"?>
<!-- Created with Inkscape (http://www.inkscape.org/) -->

<svg
   xmlns:dc="http://purl.org/dc/elements/1.1/"
   xmlns:cc="http://creativecommons.org/ns#"
   xmlns:rdf="http://www.w3.org/1999/02/22-rdf-syntax-ns#"
   xmlns:svg="http://www.w3.org/2000/svg"
   xmlns="http://www.w3.org/2000/svg"
   xmlns:sodipodi="http://sodipodi.sourceforge.net/DTD/sodipodi-0.dtd"
   xmlns:inkscape="http://www.inkscape.org/namespaces/inkscape"
   width="24"
   height="24"
   viewBox="0 0 24 24"
   version="1.1"
   id="svg1098"
   inkscape:version="0.92.3 (2405546, 2018-03-11)"
   sodipodi:docname="action_my_feed.svg">
  <defs
     id="defs1092" />
  <sodipodi:namedview
     id="base"
     pagecolor="#ffffff"
     bordercolor="#666666"
     borderopacity="1.0"
     inkscape:pageopacity="0.0"
     inkscape:pageshadow="2"
     inkscape:zoom="1"
     inkscape:cx="-193"
     inkscape:cy="12"
     inkscape:document-units="px"
     inkscape:current-layer="layer1"
     showgrid="false"
     units="px"
     inkscape:pagecheckerboard="true"
     borderlayer="true"
     inkscape:showpageshadow="false"
     showguides="false"
     inkscape:guide-bbox="true"
     inkscape:window-width="2493"
     inkscape:window-height="1376"
     inkscape:window-x="67"
     inkscape:window-y="27"
     inkscape:window-maximized="1">
    <inkscape:grid
       type="xygrid"
       id="grid1643" />
    <sodipodi:guide
       position="2,22"
       orientation="1,0"
       id="guide2244"
       inkscape:locked="false" />
    <sodipodi:guide
       position="22,22"
       orientation="0,1"
       id="guide2246"
       inkscape:locked="false" />
    <sodipodi:guide
       position="22,2"
       orientation="1,0"
       id="guide2248"
       inkscape:locked="false" />
    <sodipodi:guide
       position="2,2"
       orientation="0,1"
       id="guide2250"
       inkscape:locked="false" />
    <sodipodi:guide
       position="4,20"
       orientation="1,0"
       id="guide2254"
       inkscape:locked="false" />
    <sodipodi:guide
       position="20,20"
       orientation="0,1"
       id="guide2256"
       inkscape:locked="false" />
    <sodipodi:guide
       position="4,4"
       orientation="0,1"
       id="guide2258"
       inkscape:locked="false" />
    <sodipodi:guide
       position="20,4"
       orientation="1,0"
       inkscape:locked="false"
       id="guide2260" />
  </sodipodi:namedview>
  <metadata
     id="metadata1095">
    <rdf:RDF>
      <cc:Work
         rdf:about="">
        <dc:format>image/svg+xml</dc:format>
        <dc:type
           rdf:resource="http://purl.org/dc/dcmitype/StillImage" />
        <dc:title />
      </cc:Work>
    </rdf:RDF>
  </metadata>
  <g
     inkscape:label="Layer 1"
     inkscape:groupmode="layer"
     id="layer1"
     transform="translate(0,-290.64999)">
    <path
       style="fill:#000000;fill-opacity:1;stroke:none;stroke-width:2.68716478;stroke-linecap:round;stroke-linejoin:miter;stroke-miterlimit:4;stroke-dasharray:none;stroke-opacity:1;paint-order:normal"
       d="M 4.4960938 2.3046875 A 17.735284 17.735284 0 0 0 4 2.3125 L 4 5.515625 A 14.510687 14.510687 0 0 1 4.1796875 5.5078125 A 14.510687 14.510687 0 0 1 14.228516 9.7578125 A 14.510687 14.510687 0 0 1 18.46875 20.03125 L 21.666016 20.03125 A 17.735284 17.735284 0 0 0 21.53125 17.722656 L 20.445312 17.708984 A 16.660419 16.660419 0 0 0 19.748047 14.736328 L 20.712891 14.244141 A 17.735284 17.735284 0 0 0 19.525391 11.525391 L 18.503906 11.910156 A 16.660419 16.660419 0 0 0 16.785156 9.3808594 L 17.503906 8.5742188 A 17.735284 17.735284 0 0 0 16.507812 7.4765625 A 17.735284 17.735284 0 0 0 15.410156 6.4765625 L 14.595703 7.2050781 A 16.660419 16.660419 0 0 0 12.076172 5.4667969 L 12.457031 4.4589844 A 17.735284 17.735284 0 0 0 9.7441406 3.2597656 L 9.2519531 4.2226562 A 16.660419 16.660419 0 0 0 6.2753906 3.53125 L 6.2617188 2.4414062 A 17.735284 17.735284 0 0 0 4.4960938 2.3066406 L 4.4960938 2.3046875 z M 5.703125 7.7929688 L 5.3613281 8.8222656 A 11.286092 11.286092 0 0 0 4 8.75 L 4 10.882812 A 9.136359 9.136359 0 0 1 4.1015625 10.876953 A 9.136359 9.136359 0 0 1 10.425781 13.552734 A 9.136359 9.136359 0 0 1 13.097656 20.025391 L 15.232422 20.025391 A 11.286092 11.286092 0 0 0 15.154297 18.621094 L 16.193359 18.275391 A 12.360957 12.360957 0 0 0 15.421875 15.40625 L 14.357422 15.623047 A 11.286092 11.286092 0 0 0 12.957031 13.212891 L 13.683594 12.396484 A 12.360957 12.360957 0 0 0 12.707031 11.273438 A 12.360957 12.360957 0 0 0 11.587891 10.291016 L 10.765625 11.021484 A 11.286092 11.286092 0 0 0 8.3535156 9.6230469 L 8.5761719 8.5449219 A 12.360957 12.360957 0 0 0 5.703125 7.7929688 z M 6.5 14 A 3.5 3.5 0 0 0 3 17.5 A 3.5 3.5 0 0 0 6.5 21 A 3.5 3.5 0 0 0 10 17.5 A 3.5 3.5 0 0 0 6.5 14 z "
       transform="translate(0,290.64999)"
       id="path2324" />
  </g>
</svg>
