<?xml version="1.0" encoding="UTF-8" standalone="no"?>
<svg
   xmlns:dc="http://purl.org/dc/elements/1.1/"
   xmlns:cc="http://creativecommons.org/ns#"
   xmlns:rdf="http://www.w3.org/1999/02/22-rdf-syntax-ns#"
   xmlns:svg="http://www.w3.org/2000/svg"
   xmlns="http://www.w3.org/2000/svg"
   xmlns:sodipodi="http://sodipodi.sourceforge.net/DTD/sodipodi-0.dtd"
   xmlns:inkscape="http://www.inkscape.org/namespaces/inkscape"
   width="24"
   height="24"
   viewBox="0 0 24 24"
   version="1.1"
   id="svg1160"
   sodipodi:docname="action_invert_selection.svg"
   inkscape:version="0.92.3 (2405546, 2018-03-11)">
  <metadata
     id="metadata1166">
    <rdf:RDF>
      <cc:Work
         rdf:about="">
        <dc:format>image/svg+xml</dc:format>
        <dc:type
           rdf:resource="http://purl.org/dc/dcmitype/StillImage" />
        <dc:title />
      </cc:Work>
    </rdf:RDF>
  </metadata>
  <defs
     id="defs1164" />
  <sodipodi:namedview
     pagecolor="#ffffff"
     bordercolor="#666666"
     borderopacity="1"
     objecttolerance="10"
     gridtolerance="10"
     guidetolerance="10"
     inkscape:pageopacity="0"
     inkscape:pageshadow="2"
     inkscape:window-width="2493"
     inkscape:window-height="1376"
     id="namedview1162"
     showgrid="false"
     inkscape:measure-start="24,24"
     inkscape:measure-end="16.921,16.921"
     showguides="true"
     inkscape:guide-bbox="true"
     inkscape:zoom="49.666665"
     inkscape:cx="17.421268"
     inkscape:cy="13.861675"
     inkscape:window-x="67"
     inkscape:window-y="27"
     inkscape:window-maximized="1"
     inkscape:current-layer="svg1160">
    <sodipodi:guide
       position="0,24"
       orientation="0.70710678,0.70710678"
       id="guide1738"
       inkscape:locked="false" />
    <sodipodi:guide
       position="24,24"
       orientation="0.70710678,0.70710678"
       id="guide824"
       inkscape:locked="false" />
    <sodipodi:guide
       position="17.589844,17.419922"
       orientation="0.70710678,0.70710678"
       id="guide828"
       inkscape:locked="false" />
  </sodipodi:namedview>
  <path
     d="M0 0h24v24H0z"
     fill="none"
     id="path1156" />
  <path
     d="M 3.5859375 3.5859375 C 3.2235399 3.9485935 3 4.4490124 3 5 L 3 19 C 3 20.1 3.89 21 5 21 L 19 21 C 19.554003 21 20.052964 20.775418 20.414062 20.414062 L 13.5 13.5 L 10 17 L 5 12 L 6.4101562 10.589844 L 10 14.169922 L 12.085938 12.085938 L 3.5859375 3.5859375 z "
     id="path1158" />
  <path
     inkscape:connector-curvature="0"
     d="M 19,5 V 19 H 4.9999999 V 5 H 19 M 19,3 H 4.9999999 c -1.1,0 -2,0.9 -2,2 v 14 c 0,1.1 0.9,2 2,2 H 19 c 1.1,0 2,-0.9 2,-2 V 5 C 21,3.9 20.1,3 19,3 Z"
     id="path1168"
     style="fill:#000000" />
  <path
     style="fill:#000000"
     d="M 17.015625 7.15625 L 12.085938 12.085938 L 13.5 13.5 L 18.429688 8.5703125 L 17.015625 7.15625 z "
     id="path1745" />
</svg>
