<?xml version="1.0" encoding="UTF-8" standalone="no"?>
<!-- Created with Inkscape (http://www.inkscape.org/) -->

<svg
   xmlns:dc="http://purl.org/dc/elements/1.1/"
   xmlns:cc="http://creativecommons.org/ns#"
   xmlns:rdf="http://www.w3.org/1999/02/22-rdf-syntax-ns#"
   xmlns:svg="http://www.w3.org/2000/svg"
   xmlns="http://www.w3.org/2000/svg"
   xmlns:sodipodi="http://sodipodi.sourceforge.net/DTD/sodipodi-0.dtd"
   xmlns:inkscape="http://www.inkscape.org/namespaces/inkscape"
   width="15.99951"
   height="16"
   viewBox="0 0 4.2332035 4.2333334"
   version="1.1"
   id="svg8"
   sodipodi:docname="favicon_pin.svg"
   inkscape:version="0.92.4 (5da689c313, 2019-01-14)">
  <defs
     id="defs2" />
  <sodipodi:namedview
     id="base"
     pagecolor="#ffffff"
     bordercolor="#666666"
     borderopacity="1.0"
     inkscape:pageopacity="0.0"
     inkscape:pageshadow="2"
     inkscape:zoom="34.215031"
     inkscape:cx="7.2178165"
     inkscape:cy="8.406152"
     inkscape:document-units="px"
     inkscape:current-layer="layer1"
     showgrid="false"
     units="px"
     fit-margin-top="0"
     fit-margin-left="0"
     fit-margin-right="0"
     fit-margin-bottom="0"
     inkscape:showpageshadow="false"
     borderlayer="true"
     inkscape:pagecheckerboard="true"
     inkscape:window-width="2560"
     inkscape:window-height="1376"
     inkscape:window-x="0"
     inkscape:window-y="27"
     inkscape:window-maximized="1" />
  <metadata
     id="metadata5">
    <rdf:RDF>
      <cc:Work
         rdf:about="">
        <dc:format>image/svg+xml</dc:format>
        <dc:type
           rdf:resource="http://purl.org/dc/dcmitype/StillImage" />
        <dc:title></dc:title>
      </cc:Work>
    </rdf:RDF>
  </metadata>
  <g
     inkscape:label="Layer 1"
     inkscape:groupmode="layer"
     id="layer1">
    <path
       style="fill:#000000;stroke:none;stroke-width:0.12580332px;stroke-linecap:butt;stroke-linejoin:miter;stroke-opacity:1"
       d="m 3.4153525,0.08336869 c -0.094145,-0.094145 -0.1559565,-0.136462 -0.3180943,0.025676 -0.068469,0.068469 -0.064189,0.1431187 -0.033759,0.2282291 0.0019,0.00951 0.00713,0.015215 0.00951,0.024249 0.024249,0.070371 0.032332,0.1288543 -0.023774,0.1849606 l -0.048023,0.04517 L 1.9066637,1.3885531 C 1.8263077,1.4418061 1.7293107,1.4551201 1.640872,1.4313461 1.626608,1.4265961 1.613294,1.4218361 1.59903,1.4166061 1.3589137,1.3400548 1.0607895,1.3738137 0.86869681,1.565431 0.74079341,1.6933344 0.72557811,1.7641805 0.81924711,1.8583249 L 1.4288089,2.4678867 0,4.0650145 0.16831891,4.2333334 1.7654467,2.8045245 2.3750084,3.4140862 c 0.094144,0.094144 0.1592849,0.08416 0.292894,-0.04945 C 2.8599951,3.1725438 2.8932785,2.8744197 2.8167267,2.6343037 2.811021,2.6205148 2.8048398,2.6072015 2.8019869,2.5924617 2.7782131,2.5040229 2.7915264,2.4070256 2.8447799,2.32667 l 0.7968997,-1.0945485 0.04517,-0.048499 c 0.057057,-0.057057 0.1150655,-0.048974 0.1849606,-0.023774 l 0.024249,0.00951 c 0.08511,0.030431 0.1597603,0.034234 0.228229,-0.033759 0.161663,-0.16166211 0.119821,-0.22394961 0.026152,-0.31809411 L 3.4167789,0.08384419 Z"
       id="path1934"
       inkscape:connector-curvature="0" />
  </g>
</svg>
