<?xml version="1.0" encoding="UTF-8" standalone="no"?>
<!-- Created with Inkscape (http://www.inkscape.org/) -->

<svg
   xmlns:dc="http://purl.org/dc/elements/1.1/"
   xmlns:cc="http://creativecommons.org/ns#"
   xmlns:rdf="http://www.w3.org/1999/02/22-rdf-syntax-ns#"
   xmlns:svg="http://www.w3.org/2000/svg"
   xmlns="http://www.w3.org/2000/svg"
   xmlns:sodipodi="http://sodipodi.sourceforge.net/DTD/sodipodi-0.dtd"
   xmlns:inkscape="http://www.inkscape.org/namespaces/inkscape"
   width="16"
   height="16"
   viewBox="0 0 16 16"
   version="1.1"
   id="svg43"
   style="shape-rendering:crispEdges"
   inkscape:version="0.92.4 (5da689c313, 2019-01-14)"
   sodipodi:docname="favicon_aggregator.svg">
  <defs
     id="defs37" />
  <sodipodi:namedview
     id="base"
     pagecolor="#ffffff"
     bordercolor="#666666"
     borderopacity="1.0"
     inkscape:pageopacity="0.0"
     inkscape:pageshadow="2"
     inkscape:zoom="37.25"
     inkscape:cx="-6.254713"
     inkscape:cy="11.408063"
     inkscape:document-units="px"
     inkscape:current-layer="g5813"
     showgrid="false"
     units="px"
     width="108px"
     borderlayer="true"
     inkscape:showpageshadow="false"
     inkscape:pagecheckerboard="true"
     showguides="true"
     inkscape:guide-bbox="true"
     inkscape:window-width="2560"
     inkscape:window-height="1376"
     inkscape:window-x="0"
     inkscape:window-y="27"
     inkscape:window-maximized="1"
     gridtolerance="20"
     inkscape:measure-start="51.0319,54"
     inkscape:measure-end="56.7649,54"
     fit-margin-top="0"
     fit-margin-left="0"
     fit-margin-right="0"
     fit-margin-bottom="0">
    <inkscape:grid
       type="xygrid"
       id="grid45"
       spacingx="1"
       spacingy="1"
       originx="-286"
       originy="-210" />
    <sodipodi:guide
       position="8,8"
       orientation="-0.70710678,0.70710678"
       id="guide822"
       inkscape:locked="false" />
    <sodipodi:guide
       position="8,8"
       orientation="1,0"
       id="guide824"
       inkscape:locked="false" />
    <sodipodi:guide
       position="8,8"
       orientation="0.70710678,0.70710678"
       id="guide830"
       inkscape:locked="false" />
    <sodipodi:guide
       position="2,8"
       orientation="1,0"
       id="guide834"
       inkscape:locked="false" />
  </sodipodi:namedview>
  <metadata
     id="metadata40">
    <rdf:RDF>
      <cc:Work
         rdf:about="">
        <dc:format>image/svg+xml</dc:format>
        <dc:type
           rdf:resource="http://purl.org/dc/dcmitype/StillImage" />
        <dc:title />
      </cc:Work>
    </rdf:RDF>
  </metadata>
  <g
     style="display:inline"
     inkscape:label="Foreground 7"
     id="g5813"
     inkscape:groupmode="layer">
    <path
       style="opacity:1;fill:#ffffff;fill-opacity:1;stroke:none;stroke-width:0.72753704;stroke-linecap:butt;stroke-linejoin:round;stroke-miterlimit:4;stroke-dasharray:none;stroke-dashoffset:0;stroke-opacity:1;paint-order:normal"
       d="M 7.997158,0.0020019 A 8.0028421,8.0029733 0 0 0 3.401777,1.4656139 10.912967,10.913145 0 0 1 3.631972,1.4570839 10.912967,10.913145 0 0 1 14.544938,12.37023 10.912967,10.913145 0 0 1 14.532148,12.614638 8.0028421,8.0029733 0 0 0 15.999999,8.0049712 8.0028421,8.0029733 0 0 0 7.997156,0.0019978 Z M 3.631972,4.0034886 A 8.3666077,8.3667448 0 0 0 0.812789,4.5008324 8.0028421,8.0029733 0 0 0 1e-6,7.8230895 5.8202488,5.8203442 0 0 1 3.631972,6.5498892 5.8202488,5.8203442 0 0 1 9.452221,12.370234 5.8202488,5.8203442 0 0 1 8.176199,15.998002 8.0028421,8.0029733 0 0 0 11.49556,15.196567 8.3666077,8.3667448 0 0 0 11.998579,12.370234 8.3666077,8.3667448 0 0 0 3.631972,4.0034886 Z m 0,5.4565726 A 2.9101244,2.9101721 0 0 0 0.721847,12.370234 2.9101244,2.9101721 0 0 0 3.631972,15.280406 2.9101244,2.9101721 0 0 0 6.542096,12.370234 2.9101244,2.9101721 0 0 0 3.631972,9.4600612 Z"
       id="path1582"
       inkscape:connector-curvature="0" />
  </g>
</svg>
