<?xml version="1.0" encoding="UTF-8" standalone="no"?>
<!-- Created with Inkscape (http://www.inkscape.org/) -->

<svg
   xmlns:dc="http://purl.org/dc/elements/1.1/"
   xmlns:cc="http://creativecommons.org/ns#"
   xmlns:rdf="http://www.w3.org/1999/02/22-rdf-syntax-ns#"
   xmlns:svg="http://www.w3.org/2000/svg"
   xmlns="http://www.w3.org/2000/svg"
   xmlns:sodipodi="http://sodipodi.sourceforge.net/DTD/sodipodi-0.dtd"
   xmlns:inkscape="http://www.inkscape.org/namespaces/inkscape"
   width="16"
   height="16"
   viewBox="0 0 16 16"
   version="1.1"
   id="svg1140"
   inkscape:version="0.92.4 (5da689c313, 2019-01-14)"
   sodipodi:docname="favicon_rule.svg">
  <defs
     id="defs1134" />
  <sodipodi:namedview
     id="base"
     pagecolor="#ffffff"
     bordercolor="#666666"
     borderopacity="1.0"
     inkscape:pageopacity="0.0"
     inkscape:pageshadow="2"
     inkscape:zoom="30.554157"
     inkscape:cx="9.1854689"
     inkscape:cy="6.0881117"
     inkscape:document-units="px"
     inkscape:current-layer="layer1"
     showgrid="false"
     units="px"
     fit-margin-top="0"
     fit-margin-left="0"
     fit-margin-right="0"
     fit-margin-bottom="0"
     inkscape:showpageshadow="false"
     inkscape:window-width="2560"
     inkscape:window-height="1376"
     inkscape:window-x="0"
     inkscape:window-y="27"
     inkscape:window-maximized="1"
     showguides="true"
     inkscape:guide-bbox="true">
    <sodipodi:guide
       position="8,8"
       orientation="-1,1"
       id="guide2849"
       inkscape:locked="false" />
    <sodipodi:guide
       position="0,16"
       orientation="1,0"
       id="guide2896"
       inkscape:locked="false" />
    <sodipodi:guide
       position="16,0"
       orientation="1,0"
       id="guide2898"
       inkscape:locked="false" />
  </sodipodi:namedview>
  <metadata
     id="metadata1137">
    <rdf:RDF>
      <cc:Work
         rdf:about="">
        <dc:format>image/svg+xml</dc:format>
        <dc:type
           rdf:resource="http://purl.org/dc/dcmitype/StillImage" />
        <dc:title></dc:title>
      </cc:Work>
    </rdf:RDF>
  </metadata>
  <g
     inkscape:label="Layer 1"
     inkscape:groupmode="layer"
     id="layer1"
     transform="translate(0,-8.6800258e-5)">
    <path
       style="opacity:1;fill:#000000;fill-opacity:1;stroke:none;stroke-width:0.75;stroke-linecap:butt;stroke-linejoin:round;stroke-miterlimit:4;stroke-dasharray:none;stroke-dashoffset:0;stroke-opacity:1;paint-order:normal"
       d="M 8 0 A 8 8 0 0 0 7.5175781 0.017578125 L 7.1992188 1.5566406 A 6.5 6.5 0 0 0 4.6074219 2.4628906 L 3.4042969 1.4628906 A 8 8 0 0 0 1.4589844 3.4003906 L 2.4628906 4.609375 A 6.5 6.5 0 0 0 1.5566406 7.1992188 L 0.0234375 7.5175781 A 8 8 0 0 0 0 8 A 8 8 0 0 0 0.32617188 10.246094 L 1.8945312 10.214844 A 6.5 6.5 0 0 0 3.3535156 12.544922 L 2.6484375 13.935547 A 8 8 0 0 0 4.9707031 15.400391 L 5.9257812 14.152344 A 6.5 6.5 0 0 0 8 14.5 A 6.5 6.5 0 0 0 8.6542969 14.460938 L 9.3066406 15.888672 A 8 8 0 0 0 11.896484 14.976562 L 11.519531 13.462891 A 6.5 6.5 0 0 0 13.458984 11.517578 L 14.984375 11.898438 A 8 8 0 0 0 15.882812 9.3027344 L 14.464844 8.65625 A 6.5 6.5 0 0 0 14.5 8 A 6.5 6.5 0 0 0 14.152344 5.9257812 L 15.398438 4.9726562 A 8 8 0 0 0 13.935547 2.6503906 L 12.539062 3.3574219 A 6.5 6.5 0 0 0 10.214844 1.8984375 L 10.246094 0.328125 A 8 8 0 0 0 8 0 z M 8 4 A 4 4 0 0 1 12 8 A 4 4 0 0 1 8 12 A 4 4 0 0 1 4 8 A 4 4 0 0 1 8 4 z "
       transform="translate(0,8.6800258e-5)"
       id="path2900" />
  </g>
</svg>
