<?xml version="1.0" encoding="UTF-8" standalone="no"?>
<svg
   xmlns:dc="http://purl.org/dc/elements/1.1/"
   xmlns:cc="http://creativecommons.org/ns#"
   xmlns:rdf="http://www.w3.org/1999/02/22-rdf-syntax-ns#"
   xmlns:svg="http://www.w3.org/2000/svg"
   xmlns="http://www.w3.org/2000/svg"
   xmlns:sodipodi="http://sodipodi.sourceforge.net/DTD/sodipodi-0.dtd"
   xmlns:inkscape="http://www.inkscape.org/namespaces/inkscape"
   width="24"
   height="24"
   viewBox="0 0 24 24"
   version="1.1"
   id="svg1253"
   sodipodi:docname="ic_feeds_black_24dp.svg"
   inkscape:version="0.92.3 (2405546, 2018-03-11)">
  <metadata
     id="metadata1259">
    <rdf:RDF>
      <cc:Work
         rdf:about="">
        <dc:format>image/svg+xml</dc:format>
        <dc:type
           rdf:resource="http://purl.org/dc/dcmitype/StillImage" />
        <dc:title></dc:title>
      </cc:Work>
    </rdf:RDF>
  </metadata>
  <defs
     id="defs1257" />
  <sodipodi:namedview
     pagecolor="#ffffff"
     bordercolor="#666666"
     borderopacity="1"
     objecttolerance="10"
     gridtolerance="10"
     guidetolerance="10"
     inkscape:pageopacity="0"
     inkscape:pageshadow="2"
     inkscape:window-width="2493"
     inkscape:window-height="1376"
     id="namedview1255"
     showgrid="false"
     showguides="true"
     inkscape:guide-bbox="true"
     inkscape:zoom="44.979152"
     inkscape:cx="9.965442"
     inkscape:cy="12"
     inkscape:window-x="67"
     inkscape:window-y="27"
     inkscape:window-maximized="1"
     inkscape:current-layer="svg1253"
     inkscape:showpageshadow="false"
     borderlayer="true"
     inkscape:pagecheckerboard="true">
    <sodipodi:guide
       position="6,22"
       orientation="1,0"
       id="guide5606"
       inkscape:locked="false" />
    <sodipodi:guide
       inkscape:locked="false"
       id="guide5608"
       orientation="1,0"
       position="22,6" />
    <sodipodi:guide
       position="6,22"
       orientation="0,1"
       id="guide5610"
       inkscape:locked="false" />
    <sodipodi:guide
       position="22,6"
       orientation="0,1"
       id="guide5612"
       inkscape:locked="false" />
    <sodipodi:guide
       position="9,19"
       orientation="1,0"
       id="guide2293"
       inkscape:locked="false" />
    <sodipodi:guide
       position="9,19"
       orientation="0,1"
       id="guide2295"
       inkscape:locked="false" />
  </sodipodi:namedview>
  <path
     d="M0 0h24v24H0z"
     fill="none"
     id="path1249" />
  <path
     d="M 8 2 C 6.9 2 6 2.9 6 4 L 6 16 C 6 17.1 6.9 18 8 18 L 20 18 C 21.1 18 22 17.1 22 16 L 22 4 C 22 2.9 21.1 2 20 2 L 8 2 z M 9 5 C 14.521065 5 19 9.4796287 19 15 L 17.179688 15 C 17.179688 10.482164 13.518404 6.8183594 9 6.8183594 L 9 5 z M 9 8.6386719 C 12.515743 8.6386719 15.363281 11.4847 15.363281 15 L 13.542969 15 C 13.542969 12.493662 11.506654 10.455078 9 10.455078 L 9 8.6386719 z M 10.400391 12.199219 A 1.4011551 1.4009792 0 0 1 11.800781 13.599609 A 1.4011551 1.4009792 0 0 1 10.400391 15 A 1.4011551 1.4009792 0 0 1 9 13.599609 A 1.4011551 1.4009792 0 0 1 10.400391 12.199219 z "
     id="path2303" />
  <path
     d="m 2,6 v 14 c 0,1.1 0.9,2 2,2 H 18 V 20 H 4 V 6 Z"
     id="path1251" />
</svg>
