<?xml version="1.0" encoding="UTF-8" standalone="no"?>
<!-- Created with Inkscape (http://www.inkscape.org/) -->

<svg
   xmlns:dc="http://purl.org/dc/elements/1.1/"
   xmlns:cc="http://creativecommons.org/ns#"
   xmlns:rdf="http://www.w3.org/1999/02/22-rdf-syntax-ns#"
   xmlns:svg="http://www.w3.org/2000/svg"
   xmlns="http://www.w3.org/2000/svg"
   xmlns:sodipodi="http://sodipodi.sourceforge.net/DTD/sodipodi-0.dtd"
   xmlns:inkscape="http://www.inkscape.org/namespaces/inkscape"
   width="108"
   height="108"
   viewBox="0 0 108 108"
   version="1.1"
   id="svg43"
   style="shape-rendering:crispEdges"
   inkscape:version="0.92.3 (2405546, 2018-03-11)"
   sodipodi:docname="launcher.svg">
  <defs
     id="defs37" />
  <sodipodi:namedview
     id="base"
     pagecolor="#ffffff"
     bordercolor="#666666"
     borderopacity="1.0"
     inkscape:pageopacity="0.0"
     inkscape:pageshadow="2"
     inkscape:zoom="10.836364"
     inkscape:cx="54"
     inkscape:cy="53"
     inkscape:document-units="px"
     inkscape:current-layer="layer6"
     showgrid="false"
     units="px"
     width="108px"
     borderlayer="true"
     inkscape:showpageshadow="false"
     inkscape:pagecheckerboard="true"
     showguides="true"
     inkscape:guide-bbox="true"
     inkscape:window-width="2493"
     inkscape:window-height="1376"
     inkscape:window-x="67"
     inkscape:window-y="27"
     inkscape:window-maximized="1"
     gridtolerance="20"
     inkscape:measure-start="51.0319,54"
     inkscape:measure-end="56.7649,54">
    <inkscape:grid
       type="xygrid"
       id="grid45"
       spacingx="1"
       spacingy="1"
       originx="54"
       originy="54" />
    <sodipodi:guide
       position="54,54"
       orientation="1,0"
       id="guide4559"
       inkscape:locked="false" />
    <sodipodi:guide
       position="54,54"
       orientation="0,1"
       id="guide4561"
       inkscape:locked="false" />
    <sodipodi:guide
       position="108,0"
       orientation="1,0"
       id="guide4925"
       inkscape:locked="false" />
    <sodipodi:guide
       position="54,54"
       orientation="-0.70710678,0.70710678"
       id="guide950"
       inkscape:locked="false" />
  </sodipodi:namedview>
  <metadata
     id="metadata40">
    <rdf:RDF>
      <cc:Work
         rdf:about="">
        <dc:format>image/svg+xml</dc:format>
        <dc:type
           rdf:resource="http://purl.org/dc/dcmitype/StillImage" />
        <dc:title />
      </cc:Work>
    </rdf:RDF>
  </metadata>
  <g
     inkscape:groupmode="layer"
     id="layer3"
     inkscape:label="Background"
     style="display:none"
     sodipodi:insensitive="true">
    <rect
       y="0"
       x="0"
       height="108"
       width="108"
       id="rect4945"
       style="opacity:1;fill:#ff6d00;fill-opacity:1;stroke:none;stroke-width:6;stroke-linecap:round;stroke-linejoin:round;stroke-miterlimit:4;stroke-dasharray:none;stroke-opacity:1;shape-rendering:crispEdges" />
    <path
       style="opacity:1;fill:#ffab00;fill-opacity:1;stroke:none;stroke-width:6;stroke-linecap:round;stroke-linejoin:round;stroke-miterlimit:4;stroke-dasharray:none;stroke-opacity:1;shape-rendering:crispEdges"
       d="M 70.085938,0 C 78.258032,3.4909085 85.664205,8.9613267 91.5,16.5 107.34085,36.963188 105.7355,68.3092 84.375,84.375 67.816227,96.829291 42.6159,95.391735 30,78 20.523893,64.936648 21.793906,45.198942 35.625,35.625 45.602098,28.718811 60.560319,29.82168 67.5,40.5 72.244334,47.800267 71.307904,58.662268 63.375,63.375 58.341726,66.365137 50.892509,65.593767 48,60 c -1.642723,-3.176829 -1.033323,-7.896715 2.625,-9.375 1.732294,-0.699999 4.404407,-0.244483 4.875,1.875 0.156166,0.70335 -0.167664,1.990069 -1.125,1.875 C 54.29146,54.36496 53.833525,54.166476 54,54 54.166475,53.833524 53.708539,53.635041 53.625,53.625 52.667664,53.509931 52.343834,54.79665 52.5,55.5 c 0.470593,2.119483 3.142706,2.574999 4.875,1.875 C 61.033323,55.896715 61.642723,51.176828 60,48 57.10749,42.406233 49.658275,41.634863 44.625,44.625 36.692096,49.337731 35.755666,60.199734 40.5,67.5 47.439681,78.17832 62.397902,79.281189 72.375,72.375 86.206094,62.801058 87.476107,43.063353 78,30 65.3841,12.608265 40.183773,11.170709 23.625,23.625 2.2644943,39.690801 0.65915248,71.036809 16.5,91.5 22.335763,99.038636 29.742022,104.50909 37.914062,108 H 108 V 0 Z"
       id="rect4941"
       inkscape:connector-curvature="0" />
  </g>
  <g
     inkscape:groupmode="layer"
     id="layer4"
     inkscape:label="Background 2"
     style="display:none"
     sodipodi:insensitive="true">
    <rect
       style="opacity:1;fill:#ff6d00;fill-opacity:1;stroke:none;stroke-width:1;stroke-linecap:round;stroke-linejoin:round;stroke-miterlimit:4;stroke-dasharray:none;stroke-opacity:1"
       id="rect4962"
       width="108"
       height="108"
       x="0"
       y="-108"
       transform="scale(1,-1)" />
    <path
       style="fill:#ffab00;fill-opacity:1;fill-rule:evenodd;stroke:none;stroke-width:1;stroke-miterlimit:4;stroke-dasharray:none;stroke-opacity:1"
       d="M 75.326172,0 C 82.100829,3.46892 88.269047,8.326827 93.365234,14.632812 110.75791,36.154376 109.3594,69.448549 87.162109,87.162109 69.034938,101.62769 41.091961,100.3848 26.351562,81.648438 14.464765,66.539255 15.563609,43.33762 31.21875,31.21875 c 12.445533,-9.634265 31.475824,-8.671802 41.302734,4.259766 7.685918,10.114161 6.852173,25.5091 -3.691406,33.351562 -8.093006,6.019691 -20.350679,5.303095 -26.49414,-3.166016 C 37.722414,59.30406 38.329528,49.723475 45.015625,45.015625 49.908714,41.570278 57.236431,42.077528 60.75,47.25 c 2.4931,3.670198 2.076092,9.13136 -1.830078,11.669922 -2.669263,1.734714 -6.614226,1.400277 -8.375,-1.464844 -1.148121,-1.868214 -0.886625,-4.613327 1.140625,-5.771484 1.244978,-0.711248 3.062815,-0.51306 3.771484,0.857422 0.402026,0.77747 0.259451,1.912441 -0.613281,2.302734 -0.443591,0.198378 -1.094341,0.09981 -1.275391,-0.412109 l 0.863282,-0.863282 c -0.18105,-0.511916 -0.831799,-0.610487 -1.275391,-0.412109 -0.872731,0.390293 -1.015307,1.523311 -0.613281,2.300781 0.70867,1.370482 2.526506,1.568671 3.771484,0.857422 2.02725,-1.158157 2.288745,-3.901317 1.140625,-5.769531 -1.760774,-2.865121 -5.705738,-3.199558 -8.375,-1.464844 C 45.173907,51.618639 44.7569,57.079802 47.25,60.75 c 3.513569,5.172472 10.841286,5.679722 15.734375,2.234375 6.686096,-4.70785 7.29321,-14.288434 2.679687,-20.648437 C 59.520603,33.866827 47.262928,33.15023 39.169922,39.169922 28.626343,47.012383 27.792599,62.407323 35.478516,72.521484 45.305377,85.453002 64.335718,86.415515 76.78125,76.78125 92.436392,64.66238 93.535235,41.460743 81.648438,26.351562 66.908037,7.6152 38.965062,6.37231 20.837891,20.837891 -1.3594,38.55145 -2.7579,71.84367 14.634766,93.365234 19.730953,99.67122 25.899171,104.53108 32.673828,108 H 0 V 15.109375 C 2.34393,12.472335 4.90447,9.986994 7.70117,7.70117 11.445719,4.64065 15.502024,2.07945 19.753906,0 Z M 108,92.880859 V 108 H 88.242188 c 4.253237,-2.07977 8.311003,-4.63976 12.056642,-7.70117 2.81376,-2.29976 5.37738,-4.78428 7.70117,-7.417971 z"
       id="path4956"
       inkscape:connector-curvature="0" />
  </g>
  <g
     inkscape:groupmode="layer"
     id="layer5"
     inkscape:label="Background 3"
     style="display:none"
     sodipodi:insensitive="true">
    <rect
       style="opacity:1;fill:#ffab00;fill-opacity:1;stroke:none;stroke-width:1;stroke-linecap:round;stroke-linejoin:miter;stroke-miterlimit:4;stroke-dasharray:none;stroke-opacity:1;paint-order:normal;shape-rendering:crispEdges"
       id="rect1528"
       width="108"
       height="108"
       x="0"
       y="0" />
    <path
       style="opacity:1;fill:#ff6d00;fill-opacity:1;stroke:none;stroke-width:1;stroke-linecap:round;stroke-linejoin:miter;stroke-miterlimit:4;stroke-dasharray:none;stroke-opacity:1;paint-order:normal;shape-rendering:crispEdges"
       d="M 0,0 V 3.8359375 C 38.715095,10.325675 57.479962,24.822268 54,54 76.350243,44.421324 82.368283,26.671173 76.001953,0 Z M 30.078125,45.054688 C 20.176558,45.085918 10.273315,49.72873 0,58.533203 V 108 h 31.998047 c -6.367221,-26.672446 -0.350882,-44.423004 22,-54.001953 C 45.899039,47.938904 37.988275,45.029738 30.078125,45.054688 Z M 108,49.464844 C 89.517958,65.305842 72.236181,67.646521 53.998047,54.001953 50.51797,83.180646 69.282848,97.676593 108,104.16602 Z"
       id="rect839"
       inkscape:connector-curvature="0" />
  </g>
  <g
     inkscape:groupmode="layer"
     id="layer2"
     inkscape:label="Foreground"
     style="display:none"
     sodipodi:insensitive="true">
    <path
       inkscape:connector-curvature="0"
       id="path1460"
       d="m 54,28 a 2.0002,2.0002 0 1 0 0,4 c 7.190211,0 13.865408,3.511865 17.962891,9.318359 l -2.615235,1.509766 c 0.381934,0.524613 0.746187,1.064692 1.076172,1.632813 0.3601,0.5959 0.591882,1.276824 0.689453,1.966796 l 4.669922,-2.695312 A 2.0003215,2.0003215 0 0 0 76.517578,41 C 71.874728,32.958349 63.285699,28 54,28 Z m 0,10 a 2.0002,2.0002 0 1 0 0,4 c 3.612248,0 6.982989,1.624082 9.240234,4.353516 l -2.648437,1.529296 a 9,9 0 0 1 2,3.466797 l 4.138672,-2.390625 A 2.0002,2.0002 0 0 0 67.855469,46 C 64.998947,41.05236 59.713043,38 54,38 Z M 33.246094,39.974609 A 2.0002,2.0002 0 0 0 31.482422,41 c -4.642849,8.041651 -4.642849,17.958349 0,26 a 2.0003215,2.0003215 0 1 0 3.464844,-2 C 31.351978,58.77278 31.05483,51.235169 34.035156,44.783203 l 2.613282,1.509766 c 0.266078,-0.599484 0.555479,-1.191871 0.886718,-1.767578 0.347305,-0.617722 0.819824,-1.139452 1.371094,-1.550782 l -4.410156,-2.544921 a 2.0002,2.0002 0 0 0 -1.25,-0.455079 z m 8.660156,5 A 2.0002,2.0002 0 0 0 40.144531,46 c -2.856521,4.94764 -2.856521,11.05236 0,16 a 2.0002,2.0002 0 1 0 3.462891,-2 c -1.806124,-3.128298 -2.084775,-6.860191 -0.84961,-10.179688 l 2.642579,1.525391 a 9,9 0 0 1 2.009765,-3.458984 L 43.158203,45.431641 A 2.0002,2.0002 0 0 0 41.90625,44.974609 Z M 54,48 a 6,6 0 0 0 -6,6 6,6 0 0 0 6,6 6,6 0 0 0 6,-6 6,6 0 0 0 -6,-6 z M 66.15625,58.974609 A 2.0002,2.0002 0 0 0 64.392578,60 C 62.586111,63.128893 59.493229,65.236577 56,65.826172 v -3.0625 A 9,9 0 0 1 54,63 9,9 0 0 1 52,62.765625 v 4.910156 A 2.0002,2.0002 0 0 0 54,70 c 5.713043,0 10.998947,-3.052359 13.855469,-8 A 2.0002,2.0002 0 0 0 66.15625,58.974609 Z m 8.660156,5 A 2.0002,2.0002 0 0 0 73.052734,65 C 69.457451,71.227215 63.077747,75.253487 56,75.898438 V 72.880859 C 55.347725,72.95003 54.689612,72.99518 54.025391,72.996094 53.335696,73.003208 52.63813,72.858216 52,72.595703 v 5.080078 A 2.0002,2.0002 0 0 0 54,80 c 9.285699,0 17.874729,-4.958349 22.517578,-13 a 2.0002,2.0002 0 0 0 -1.701172,-3.025391 z"
       style="opacity:1;fill:#ffffff;stroke:#424242;stroke-opacity:1" />
    <path
       style="opacity:1;fill:#ffffff"
       d="m 54,28 a 2.0002,2.0002 0 1 0 0,4 c 7.190211,0 13.865408,3.511865 17.962891,9.318359 l -2.615235,1.509766 c 0.381934,0.524613 0.746187,1.064692 1.076172,1.632813 0.3601,0.5959 0.591882,1.276824 0.689453,1.966796 l 4.669922,-2.695312 A 2.0003215,2.0003215 0 0 0 76.517578,41 C 71.874728,32.958349 63.285699,28 54,28 Z m 0,10 a 2.0002,2.0002 0 1 0 0,4 c 3.612248,0 6.982989,1.624082 9.240234,4.353516 l -2.648437,1.529296 a 9,9 0 0 1 2,3.466797 l 4.138672,-2.390625 A 2.0002,2.0002 0 0 0 67.855469,46 C 64.998947,41.05236 59.713043,38 54,38 Z M 33.246094,39.974609 A 2.0002,2.0002 0 0 0 31.482422,41 c -4.642849,8.041651 -4.642849,17.958349 0,26 a 2.0003215,2.0003215 0 1 0 3.464844,-2 C 31.351978,58.77278 31.05483,51.235169 34.035156,44.783203 l 2.613282,1.509766 c 0.266078,-0.599484 0.555479,-1.191871 0.886718,-1.767578 0.347305,-0.617722 0.819824,-1.139452 1.371094,-1.550782 l -4.410156,-2.544921 a 2.0002,2.0002 0 0 0 -1.25,-0.455079 z m 8.660156,5 A 2.0002,2.0002 0 0 0 40.144531,46 c -2.856521,4.94764 -2.856521,11.05236 0,16 a 2.0002,2.0002 0 1 0 3.462891,-2 c -1.806124,-3.128298 -2.084775,-6.860191 -0.84961,-10.179688 l 2.642579,1.525391 a 9,9 0 0 1 2.009765,-3.458984 L 43.158203,45.431641 A 2.0002,2.0002 0 0 0 41.90625,44.974609 Z M 54,48 a 6,6 0 0 0 -6,6 6,6 0 0 0 6,6 6,6 0 0 0 6,-6 6,6 0 0 0 -6,-6 z M 66.15625,58.974609 A 2.0002,2.0002 0 0 0 64.392578,60 C 62.586111,63.128893 59.493229,65.236577 56,65.826172 v -3.0625 A 9,9 0 0 1 54,63 9,9 0 0 1 52,62.765625 v 4.910156 A 2.0002,2.0002 0 0 0 54,70 c 5.713043,0 10.998947,-3.052359 13.855469,-8 A 2.0002,2.0002 0 0 0 66.15625,58.974609 Z m 8.660156,5 A 2.0002,2.0002 0 0 0 73.052734,65 C 69.457451,71.227215 63.077747,75.253487 56,75.898438 V 72.880859 C 55.347725,72.95003 54.689612,72.99518 54.025391,72.996094 53.335696,73.003208 52.63813,72.858216 52,72.595703 v 5.080078 A 2.0002,2.0002 0 0 0 54,80 c 9.285699,0 17.874729,-4.958349 22.517578,-13 a 2.0002,2.0002 0 0 0 -1.701172,-3.025391 z"
       id="path4568"
       inkscape:connector-curvature="0" />
  </g>
  <g
     inkscape:groupmode="layer"
     id="layer6"
     inkscape:label="Foreground 2"
     style="display:inline">
    <path
       style="opacity:0.333;fill:#000000;fill-opacity:1;stroke:none;stroke-width:4;stroke-linecap:round;stroke-linejoin:miter;stroke-miterlimit:4;stroke-dasharray:none;stroke-opacity:1;paint-order:normal"
       d="M 0,2 V 110 H 108 V 2 Z m 54,25.044922 a 28.940542,28.940542 0 0 1 3.650391,0.259766 l 0.84375,2.957031 a 26.139844,26.139844 0 0 1 5.65039,1.636719 l 2.283203,-2.007813 a 28.940542,28.940542 0 0 1 6.158204,3.914063 l -0.900391,2.978515 a 26.139844,26.139844 0 0 1 3.84375,4.427735 L 78.582031,40.75 a 28.940542,28.940542 0 0 1 3.021485,6.644531 l -2.328125,1.988281 a 26.139844,26.139844 0 0 1 0.835937,5.820313 l 2.804688,1.255859 a 28.940542,28.940542 0 0 1 -1.048828,7.22461 l -3.035157,0.414062 a 26.139844,26.139844 0 0 1 -2.451172,5.332032 l 1.69336,2.591796 a 28.940542,28.940542 0 0 1 -4.796875,5.501954 l -2.769532,-1.289063 a 26.139844,26.139844 0 0 1 -4.947265,3.179687 l 0.02148,3.054688 a 28.940542,28.940542 0 0 1 -6.996093,2.076172 l -1.65625,-2.615234 A 26.139844,26.139844 0 0 1 54,82.126953 26.139844,26.139844 0 0 1 51.058594,81.943359 l -1.632813,2.583985 a 28.940542,28.940542 0 0 1 -7.009765,-2.03711 l 0.02344,-3.095703 a 26.139844,26.139844 0 0 1 -4.947265,-3.162109 l -2.777344,1.292969 a 28.940542,28.940542 0 0 1 -4.785156,-5.507813 l 1.685546,-2.583984 a 26.139844,26.139844 0 0 1 -2.43164,-5.335938 l -3.082032,-0.419922 a 28.940542,28.940542 0 0 1 -1.02539,-7.214843 l 2.824219,-1.265625 a 26.139844,26.139844 0 0 1 0.83789,-5.804688 L 26.373047,47.375 a 28.940542,28.940542 0 0 1 3.0625,-6.623047 l 3.003906,0.455078 a 26.139844,26.139844 0 0 1 3.871094,-4.43164 l -0.886719,-2.94336 a 28.940542,28.940542 0 0 1 6.142578,-3.947265 L 43.875,31.914062 a 26.139844,26.139844 0 0 1 5.636719,-1.677734 l 0.835937,-2.921875 A 28.940542,28.940542 0 0 1 54,27.044922 Z M 57.363281,30.75 a 19.441585,19.441585 0 0 0 -5.921875,1.818359 l 0.496094,2.716797 a 16.790459,16.790459 0 0 0 -4.824219,3.984375 L 44.511719,38.25 a 19.441585,19.441585 0 0 0 -2.894531,5.470703 l 2.283203,1.580078 a 16.790459,16.790459 0 0 0 -0.669922,3.871094 16.790459,16.790459 0 0 0 0.06641,2.351563 L 40.75,52.636719 a 19.441585,19.441585 0 0 0 1.818359,5.921875 L 45.285156,58.0625 a 16.790459,16.790459 0 0 0 3.984375,4.824219 L 48.25,65.488281 a 19.441585,19.441585 0 0 0 5.470703,2.894531 l 1.580078,-2.283203 a 16.790459,16.790459 0 0 0 3.871094,0.669922 16.790459,16.790459 0 0 0 2.351563,-0.06641 L 62.636719,69.25 a 19.441585,19.441585 0 0 0 5.921875,-1.818359 L 68.0625,64.714844 a 16.790459,16.790459 0 0 0 4.824219,-3.984375 L 75.488281,61.75 a 19.441585,19.441585 0 0 0 2.894531,-5.470703 l -2.283203,-1.580078 a 16.790459,16.790459 0 0 0 0.669922,-3.871094 16.790459,16.790459 0 0 0 -0.06641,-2.351563 L 79.25,47.363281 A 19.441585,19.441585 0 0 0 77.431641,41.441406 L 74.714844,41.9375 A 16.790459,16.790459 0 0 0 70.730469,37.113281 L 71.75,34.511719 a 19.441585,19.441585 0 0 0 -5.470703,-2.894531 l -1.580078,2.283203 a 16.790459,16.790459 0 0 0 -3.871094,-0.669922 16.790459,16.790459 0 0 0 -2.351563,0.06641 z m -6.216797,8.103516 c 11.023133,0 20,8.976867 20,20 h -3.810546 c -10e-7,-8.964314 -7.22514,-16.189454 -16.189454,-16.189454 z m 0,6.667968 c 7.341235,0 13.332032,5.990797 13.332032,13.332032 h -3.808594 c 0,-5.282416 -4.241022,-9.523438 -9.523438,-9.523438 z m 2.857422,7.619141 a 2.8571429,2.8571429 0 0 1 2.855469,2.855469 2.8571429,2.8571429 0 0 1 -2.855469,2.857422 2.8571429,2.8571429 0 0 1 -2.857422,-2.857422 2.8571429,2.8571429 0 0 1 2.857422,-2.855469 z"
       id="path887"
       inkscape:connector-curvature="0" />
    <path
       style="opacity:1;fill:#ffab00;fill-opacity:1;stroke:none;stroke-width:4;stroke-linecap:round;stroke-linejoin:miter;stroke-miterlimit:4;stroke-dasharray:none;stroke-opacity:1;paint-order:normal"
       d="M 0,0 V 108 H 108 V 0 Z m 54,25.044922 a 28.940542,28.940542 0 0 1 3.650391,0.259766 l 0.84375,2.957031 a 26.139844,26.139844 0 0 1 5.65039,1.636719 l 2.283203,-2.007813 a 28.940542,28.940542 0 0 1 6.158204,3.914063 l -0.900391,2.978515 a 26.139844,26.139844 0 0 1 3.84375,4.427735 L 78.582031,38.75 a 28.940542,28.940542 0 0 1 3.021485,6.644531 l -2.328125,1.988281 a 26.139844,26.139844 0 0 1 0.835937,5.820313 l 2.804688,1.255859 a 28.940542,28.940542 0 0 1 -1.048828,7.22461 l -3.035157,0.414062 a 26.139844,26.139844 0 0 1 -2.451172,5.332032 l 1.69336,2.591796 a 28.940542,28.940542 0 0 1 -4.796875,5.501954 l -2.769532,-1.289063 a 26.139844,26.139844 0 0 1 -4.947265,3.179687 l 0.02148,3.054688 a 28.940542,28.940542 0 0 1 -6.996093,2.076172 l -1.65625,-2.615234 A 26.139844,26.139844 0 0 1 54,80.126953 26.139844,26.139844 0 0 1 51.058594,79.943359 l -1.632813,2.583985 a 28.940542,28.940542 0 0 1 -7.009765,-2.03711 l 0.02344,-3.095703 a 26.139844,26.139844 0 0 1 -4.947265,-3.162109 l -2.777344,1.292969 a 28.940542,28.940542 0 0 1 -4.785156,-5.507813 l 1.685546,-2.583984 a 26.139844,26.139844 0 0 1 -2.43164,-5.335938 l -3.082032,-0.419922 a 28.940542,28.940542 0 0 1 -1.02539,-7.214843 l 2.824219,-1.265625 a 26.139844,26.139844 0 0 1 0.83789,-5.804688 L 26.373047,45.375 a 28.940542,28.940542 0 0 1 3.0625,-6.623047 l 3.003906,0.455078 a 26.139844,26.139844 0 0 1 3.871094,-4.43164 l -0.886719,-2.94336 a 28.940542,28.940542 0 0 1 6.142578,-3.947265 L 43.875,29.914062 a 26.139844,26.139844 0 0 1 5.636719,-1.677734 l 0.835937,-2.921875 A 28.940542,28.940542 0 0 1 54,25.044922 Z"
       id="path858"
       inkscape:connector-curvature="0" />
    <path
       style="opacity:1;fill:#ffffff;fill-opacity:1;stroke:none;stroke-width:3.53483367;stroke-linecap:round;stroke-linejoin:miter;stroke-miterlimit:4;stroke-dasharray:none;stroke-opacity:1;paint-order:normal"
       d="M 57.363281 28.75 A 19.441585 19.441585 0 0 0 51.441406 30.568359 L 51.9375 33.285156 A 16.790459 16.790459 0 0 0 47.113281 37.269531 L 44.511719 36.25 A 19.441585 19.441585 0 0 0 41.617188 41.720703 L 43.900391 43.300781 A 16.790459 16.790459 0 0 0 43.230469 47.171875 A 16.790459 16.790459 0 0 0 43.296875 49.523438 L 40.75 50.636719 A 19.441585 19.441585 0 0 0 42.568359 56.558594 L 45.285156 56.0625 A 16.790459 16.790459 0 0 0 49.269531 60.886719 L 48.25 63.488281 A 19.441585 19.441585 0 0 0 53.720703 66.382812 L 55.300781 64.099609 A 16.790459 16.790459 0 0 0 59.171875 64.769531 A 16.790459 16.790459 0 0 0 61.523438 64.703125 L 62.636719 67.25 A 19.441585 19.441585 0 0 0 68.558594 65.431641 L 68.0625 62.714844 A 16.790459 16.790459 0 0 0 72.886719 58.730469 L 75.488281 59.75 A 19.441585 19.441585 0 0 0 78.382812 54.279297 L 76.099609 52.699219 A 16.790459 16.790459 0 0 0 76.769531 48.828125 A 16.790459 16.790459 0 0 0 76.703125 46.476562 L 79.25 45.363281 A 19.441585 19.441585 0 0 0 77.431641 39.441406 L 74.714844 39.9375 A 16.790459 16.790459 0 0 0 70.730469 35.113281 L 71.75 32.511719 A 19.441585 19.441585 0 0 0 66.279297 29.617188 L 64.699219 31.900391 A 16.790459 16.790459 0 0 0 60.828125 31.230469 A 16.790459 16.790459 0 0 0 58.476562 31.296875 L 57.363281 28.75 z M 51.146484 36.853516 C 62.169617 36.853516 71.146484 45.830383 71.146484 56.853516 L 67.335938 56.853516 C 67.335937 47.889202 60.110798 40.664062 51.146484 40.664062 L 51.146484 36.853516 z M 51.146484 43.521484 C 58.487719 43.521484 64.478516 49.512281 64.478516 56.853516 L 60.669922 56.853516 C 60.669922 51.5711 56.4289 47.330078 51.146484 47.330078 L 51.146484 43.521484 z M 54.003906 51.140625 A 2.8571429 2.8571429 0 0 1 56.859375 53.996094 A 2.8571429 2.8571429 0 0 1 54.003906 56.853516 A 2.8571429 2.8571429 0 0 1 51.146484 53.996094 A 2.8571429 2.8571429 0 0 1 54.003906 51.140625 z "
       id="path867" />
  </g>
  <g
     inkscape:label="Keylines"
     inkscape:groupmode="layer"
     id="layer1"
     style="display:none">
    <rect
       id="rect3750"
       width="72"
       height="72"
       x="18"
       y="18"
       style="opacity:0.25;fill:#ffffff"
       sodipodi:insensitive="true" />
    <circle
       style="opacity:0.25;fill:#ffffff"
       id="path4557"
       cx="54"
       cy="54"
       sodipodi:insensitive="true"
       r="33" />
    <circle
       style="opacity:0.25;fill:#ffffff"
       id="path4565"
       cx="54"
       cy="54"
       r="26"
       sodipodi:insensitive="true" />
  </g>
</svg>
