<?xml version="1.0" encoding="UTF-8" standalone="no"?>
<!-- Created with Inkscape (http://www.inkscape.org/) -->

<svg
   xmlns:dc="http://purl.org/dc/elements/1.1/"
   xmlns:cc="http://creativecommons.org/ns#"
   xmlns:rdf="http://www.w3.org/1999/02/22-rdf-syntax-ns#"
   xmlns:svg="http://www.w3.org/2000/svg"
   xmlns="http://www.w3.org/2000/svg"
   xmlns:sodipodi="http://sodipodi.sourceforge.net/DTD/sodipodi-0.dtd"
   xmlns:inkscape="http://www.inkscape.org/namespaces/inkscape"
   width="108"
   height="108"
   viewBox="0 0 108 108"
   version="1.1"
   id="svg1098"
   inkscape:version="0.92.3 (2405546, 2018-03-11)"
   sodipodi:docname="launcher3.svg">
  <defs
     id="defs1092" />
  <sodipodi:namedview
     id="base"
     pagecolor="#ffffff"
     bordercolor="#666666"
     borderopacity="1.0"
     inkscape:pageopacity="0.0"
     inkscape:pageshadow="2"
     inkscape:zoom="10.953704"
     inkscape:cx="54"
     inkscape:cy="54"
     inkscape:document-units="px"
     inkscape:current-layer="layer6"
     showgrid="false"
     units="px"
     inkscape:pagecheckerboard="true"
     borderlayer="true"
     inkscape:showpageshadow="false"
     showguides="false"
     inkscape:guide-bbox="true"
     inkscape:window-width="2493"
     inkscape:window-height="1376"
     inkscape:window-x="67"
     inkscape:window-y="27"
     inkscape:window-maximized="1"
     gridtolerance="10"
     guidetolerance="10"
     inkscape:measure-start="28,54"
     inkscape:measure-end="80,54">
    <inkscape:grid
       type="xygrid"
       id="grid1643"
       spacingx="1"
       spacingy="1"
       originx="54"
       originy="54" />
    <sodipodi:guide
       position="54,54"
       orientation="1,0"
       id="guide3008"
       inkscape:locked="false" />
    <sodipodi:guide
       position="54,54"
       orientation="0,1"
       id="guide3010"
       inkscape:locked="false" />
  </sodipodi:namedview>
  <metadata
     id="metadata1095">
    <rdf:RDF>
      <cc:Work
         rdf:about="">
        <dc:format>image/svg+xml</dc:format>
        <dc:type
           rdf:resource="http://purl.org/dc/dcmitype/StillImage" />
        <dc:title></dc:title>
      </cc:Work>
    </rdf:RDF>
  </metadata>
  <g
     inkscape:groupmode="layer"
     id="layer5"
     inkscape:label="Background"
     style="display:inline">
    <rect
       style="opacity:1;fill:#ff6d00;fill-opacity:1;stroke:none;stroke-width:5;stroke-linecap:round;stroke-linejoin:miter;stroke-miterlimit:4;stroke-dasharray:none;stroke-opacity:1;paint-order:normal"
       id="rect3055"
       width="108"
       height="108"
       x="0"
       y="0" />
    <path
       style="fill:#ffab00;fill-opacity:1;stroke:none;stroke-width:1px;stroke-linecap:butt;stroke-linejoin:miter;stroke-opacity:1"
       d="M 0,0 V 108 C 8.1720226,92.239369 16.034871,75.567158 24.3125,63.970703 34.998118,49.000802 44.909791,46.71701 54,54 61.28299,44.909791 58.999198,34.998118 44.029297,24.3125 32.432842,16.034871 15.760631,8.172023 0,0 Z M 54,54 C 46.71701,63.090209 49.000802,73.001882 63.970703,83.6875 75.567158,91.965129 92.239369,99.827977 108,108 V 0 C 99.827977,15.760631 91.965129,32.432842 83.6875,44.029297 73.001882,58.999198 63.090209,61.28299 54,54 Z"
       id="path3767"
       inkscape:connector-curvature="0" />
  </g>
  <g
     inkscape:groupmode="layer"
     id="layer6"
     inkscape:label="Foreground"
     style="display:none">
    <path
       style="display:inline;fill:#ffffff;fill-opacity:1;stroke:none;stroke-width:1px;stroke-linecap:butt;stroke-linejoin:miter;stroke-opacity:1"
       d="M 44.029297,24.3125 C 55.923347,32.802554 59.800559,40.804119 57.242188,48.292969 73.779324,44.076827 61.247907,35.541537 44.029297,24.3125 Z m -1.103516,18.697266 c -0.146759,-0.0072 -0.295061,-0.0044 -0.445312,0.0078 C 37.890989,43.38934 31.681556,52.67099 24.3125,63.970703 32.802554,52.076653 40.804119,48.199441 48.292969,50.757812 46.934251,45.428462 45.127177,43.117357 42.925781,43.009766 Z M 83.6875,44.029297 C 75.197446,55.923347 67.195881,59.800559 59.707031,57.242188 63.923173,73.779324 72.458463,61.247907 83.6875,44.029297 Z M 54,49 a 5,5 0 0 0 -5,5 5,5 0 0 0 5,5 5,5 0 0 0 5,-5 5,5 0 0 0 -5,-5 z M 50.757812,59.707031 C 34.220676,63.923173 46.752093,72.458463 63.970703,83.6875 52.076653,75.197446 48.199441,67.195881 50.757812,59.707031 Z"
       id="path3769"
       inkscape:connector-curvature="0" />
  </g>
  <g
     inkscape:label="Keylines"
     inkscape:groupmode="layer"
     id="layer1"
     style="display:none"
     sodipodi:insensitive="true">
    <circle
       style="opacity:0.25;fill:#ffffff;fill-opacity:1;stroke:none;stroke-width:5;stroke-linecap:round;stroke-linejoin:miter;stroke-miterlimit:4;stroke-dasharray:none;stroke-opacity:1;paint-order:normal"
       id="path2992"
       cx="54"
       cy="54"
       r="33"
       sodipodi:insensitive="true" />
    <circle
       sodipodi:insensitive="true"
       r="26"
       cy="54"
       cx="54"
       id="circle3000"
       style="opacity:0.25;fill:#ffffff;fill-opacity:1;stroke:none;stroke-width:5;stroke-linecap:round;stroke-linejoin:miter;stroke-miterlimit:4;stroke-dasharray:none;stroke-opacity:1;paint-order:normal" />
    <rect
       style="opacity:0.25;fill:#ffffff;fill-opacity:1;stroke:none;stroke-width:5;stroke-linecap:round;stroke-linejoin:miter;stroke-miterlimit:4;stroke-dasharray:none;stroke-opacity:1;paint-order:normal"
       id="rect3002"
       width="44"
       height="44"
       x="32"
       y="32"
       rx="4"
       ry="4"
       sodipodi:insensitive="true" />
  </g>
</svg>
