<?xml version="1.0" encoding="UTF-8" standalone="no"?>
<!-- Created with Inkscape (http://www.inkscape.org/) -->

<svg
   xmlns:dc="http://purl.org/dc/elements/1.1/"
   xmlns:cc="http://creativecommons.org/ns#"
   xmlns:rdf="http://www.w3.org/1999/02/22-rdf-syntax-ns#"
   xmlns:svg="http://www.w3.org/2000/svg"
   xmlns="http://www.w3.org/2000/svg"
   xmlns:sodipodi="http://sodipodi.sourceforge.net/DTD/sodipodi-0.dtd"
   xmlns:inkscape="http://www.inkscape.org/namespaces/inkscape"
   width="108"
   height="108"
   viewBox="0 0 108 108"
   version="1.1"
   id="svg43"
   style="shape-rendering:crispEdges"
   inkscape:version="0.92.4 (5da689c313, 2019-01-14)"
   sodipodi:docname="launcher_background.svg">
  <defs
     id="defs37" />
  <sodipodi:namedview
     id="base"
     pagecolor="#ffffff"
     bordercolor="#666666"
     borderopacity="1.0"
     inkscape:pageopacity="0.0"
     inkscape:pageshadow="2"
     inkscape:zoom="5.4731901"
     inkscape:cx="72.275854"
     inkscape:cy="47.052926"
     inkscape:document-units="px"
     inkscape:current-layer="g1904"
     showgrid="false"
     units="px"
     width="108px"
     borderlayer="true"
     inkscape:showpageshadow="false"
     inkscape:pagecheckerboard="true"
     showguides="true"
     inkscape:guide-bbox="true"
     inkscape:window-width="2560"
     inkscape:window-height="1376"
     inkscape:window-x="0"
     inkscape:window-y="27"
     inkscape:window-maximized="1"
     gridtolerance="20"
     inkscape:measure-start="51.0319,54"
     inkscape:measure-end="56.7649,54">
    <inkscape:grid
       type="xygrid"
       id="grid45"
       spacingx="1"
       spacingy="1"
       originx="54"
       originy="54" />
    <sodipodi:guide
       position="54,54"
       orientation="1,0"
       id="guide4559"
       inkscape:locked="false" />
    <sodipodi:guide
       position="54,54"
       orientation="0,1"
       id="guide4561"
       inkscape:locked="false" />
    <sodipodi:guide
       position="108,0"
       orientation="1,0"
       id="guide4925"
       inkscape:locked="false" />
    <sodipodi:guide
       position="54,54"
       orientation="-0.70710678,0.70710678"
       id="guide950"
       inkscape:locked="false" />
    <sodipodi:guide
       position="27.797952,-9.25735"
       orientation="-63.257348,26.20205"
       inkscape:locked="false"
       id="guide4739" />
    <sodipodi:guide
       position="54.000002,53.999998"
       orientation="-29.22459,70.554398"
       inkscape:locked="false"
       id="guide4741" />
    <sodipodi:guide
       position="-9.2573444,80.202049"
       orientation="26.20205,63.257344"
       id="guide4751"
       inkscape:locked="false" />
    <sodipodi:guide
       position="54,53.999999"
       orientation="70.554399,29.224588"
       id="guide4753"
       inkscape:locked="false" />
    <sodipodi:guide
       position="54,53.999999"
       orientation="0.70710678,0.70710678"
       id="guide4761"
       inkscape:locked="false" />
  </sodipodi:namedview>
  <metadata
     id="metadata40">
    <rdf:RDF>
      <cc:Work
         rdf:about="">
        <dc:format>image/svg+xml</dc:format>
        <dc:type
           rdf:resource="http://purl.org/dc/dcmitype/StillImage" />
        <dc:title />
      </cc:Work>
    </rdf:RDF>
  </metadata>
  <g
     style="display:none"
     inkscape:label="main"
     id="g1859"
     inkscape:groupmode="layer"
     sodipodi:insensitive="true">
    <circle
       style="display:inline;opacity:1;fill:#ffcc80;fill-opacity:1;stroke:none;stroke-width:2;stroke-linecap:round;stroke-linejoin:miter;stroke-miterlimit:4;stroke-dasharray:none;stroke-opacity:1;paint-order:normal;shape-rendering:crispEdges"
       id="circle1843"
       cx="54.000004"
       cy="54"
       r="77" />
    <path
       inkscape:connector-curvature="0"
       id="path1857"
       d="M 83.382812,-16.9375 54,54 125.07812,24.558594 A 77,77 0 0 0 108.36719,-0.3671875 l 0.0469,-0.046875 A 77,77 0 0 0 89.361328,-14.294922 77,77 0 0 0 88.160156,-14.904297 l -0.02148,0.04297 a 77,77 0 0 0 -4.75586,-2.076172 z"
       style="display:inline;fill:#ffe0b2;fill-opacity:1;stroke:none;stroke-width:1px;stroke-linecap:butt;stroke-linejoin:miter;stroke-opacity:1;shape-rendering:crispEdges" />
    <path
       style="display:inline;fill:#ffa726;fill-opacity:1;stroke:none;stroke-width:1px;stroke-linecap:butt;stroke-linejoin:miter;stroke-opacity:1;shape-rendering:crispEdges"
       d="M 24.558594,-17.078125 A 77,77 0 0 0 -0.37304688,-0.37304688 l -0.0410156,-0.0410156 a 77,77 0 0 0 -5.49414062,6.16992188 77,77 0 0 0 -0.2246094,0.3046875 77,77 0 0 0 -4.2480465,5.8554691 77,77 0 0 0 -0.822266,1.390625 77,77 0 0 0 -3.023437,5.1875 77,77 0 0 0 -1.71875,3.5 l 0.07812,0.03516 a 77,77 0 0 0 -1.042968,2.597656 l -0.205078,-0.08398 A 77,77 0 0 0 -23,54 a 77,77 0 0 0 3.935547,23.988281 77,77 0 0 0 0.267578,0.8125 l 0.02734,-0.0098 a 77,77 0 0 0 1.822265,4.595703 l -0.130859,0.05469 a 77,77 0 0 0 0.921875,1.935547 77,77 0 0 0 0.779297,1.640625 77,77 0 0 0 2.582031,4.986328 77,77 0 0 0 1.353516,2.236328 77,77 0 0 0 2.6249998,4.025391 77,77 0 0 0 2.0507812,2.732427 77,77 0 0 0 2.5625,3.18359 77,77 0 0 0 0.8261719,1.02734 l 0.0625,-0.0547 a 77,77 0 0 0 2.94140622,3.21875 l -0.0410156,0.041 a 77,77 0 0 0 6.14648438,5.47656 77,77 0 0 0 0.65625,0.48243 77,77 0 0 0 5.5019531,3.99218 77,77 0 0 0 1.792969,1.06055 77,77 0 0 0 4.77539,2.7832 77,77 0 0 0 3.660157,1.79688 l 0.03711,-0.082 a 77,77 0 0 0 2.472656,0.98633 l -0.08594,0.20507 A 77,77 0 0 0 54,131 a 77,77 0 0 0 23.982422,-3.93359 77,77 0 0 0 0.537109,-0.17579 l -0.0059,-0.0195 a 77,77 0 0 0 4.878906,-1.91406 l 0.04883,0.12109 a 77,77 0 0 0 1.666016,-0.79296 77,77 0 0 0 1.871094,-0.89063 77,77 0 0 0 4.783203,-2.45508 77,77 0 0 0 2.480469,-1.5 77,77 0 0 0 3.800781,-2.45703 77,77 0 0 0 3.96289,-2.97656 77,77 0 0 0 1.4082,-1.10547 77,77 0 0 0 0.55664,-0.43555 l -0.0351,-0.041 a 77,77 0 0 0 4.43554,-4.05274 l 0.043,0.043 a 77,77 0 0 0 10.01758,-12.404294 77,77 0 0 0 0.14648,-0.25 77,77 0 0 0 3.71094,-6.371094 77,77 0 0 0 0.34961,-0.675781 l -0.0293,-0.01367 a 77,77 0 0 0 2.36328,-5.300781 L 54,54 Z M 129.84961,66.751953 a 77,77 0 0 1 -0.0176,0.123047 77,77 0 0 0 0.0176,-0.123047 z"
       id="path1845"
       inkscape:connector-curvature="0" />
    <path
       style="display:inline;fill:#fb8c00;fill-opacity:1;stroke:none;stroke-width:1px;stroke-linecap:butt;stroke-linejoin:miter;stroke-opacity:1;shape-rendering:crispEdges"
       d="M -17.115234,24.542969 A 77,77 0 0 0 -23,54 a 77,77 0 0 0 3.935547,23.988281 77,77 0 0 0 0.267578,0.8125 l 0.02734,-0.0098 a 77,77 0 0 0 1.822265,4.595703 l -0.130859,0.05469 a 77,77 0 0 0 0.921875,1.935547 77,77 0 0 0 0.779297,1.640625 77,77 0 0 0 2.582031,4.986328 77,77 0 0 0 1.353516,2.236328 77,77 0 0 0 2.6249998,4.025391 77,77 0 0 0 2.0507812,2.732427 77,77 0 0 0 2.5625,3.18359 77,77 0 0 0 0.8261719,1.02734 l 0.0625,-0.0547 a 77,77 0 0 0 2.94140622,3.21875 l -0.0410156,0.041 a 77,77 0 0 0 6.14648438,5.47656 77,77 0 0 0 0.65625,0.48243 77,77 0 0 0 5.5019531,3.99218 77,77 0 0 0 1.792969,1.06055 77,77 0 0 0 4.77539,2.7832 77,77 0 0 0 3.660157,1.79688 l 0.03711,-0.082 a 77,77 0 0 0 2.472656,0.98633 l -0.08594,0.20507 A 77,77 0 0 0 54,131 a 77,77 0 0 0 23.982422,-3.93359 77,77 0 0 0 0.537109,-0.17579 l -0.0059,-0.0195 a 77,77 0 0 0 4.878906,-1.91406 L 54,54 Z M 129.84961,66.751953 a 77,77 0 0 1 -0.0176,0.123047 77,77 0 0 0 0.0176,-0.123047 z m -25.91406,45.671877 a 77,77 0 0 1 -0.52149,0.47656 77,77 0 0 0 0.55664,-0.43555 z m -1.92969,1.58203 a 77,77 0 0 1 -3.962891,2.97656 77,77 0 0 0 3.962891,-2.97656 z m -7.763672,5.43359 a 77,77 0 0 1 -2.480469,1.5 77,77 0 0 0 2.480469,-1.5 z m -7.263672,3.95508 a 77,77 0 0 1 -1.871094,0.89063 77,77 0 0 0 1.871094,-0.89063 z"
       id="path1888"
       inkscape:connector-curvature="0" />
    <path
       style="display:inline;fill:#ef6c00;fill-opacity:1;stroke:none;stroke-width:1px;stroke-linecap:butt;stroke-linejoin:miter;stroke-opacity:1;shape-rendering:crispEdges"
       d="m 54,54 -71.078125,29.441406 a 77,77 0 0 0 16.70507812,24.931644 l -0.0410156,0.041 a 77,77 0 0 0 6.14648438,5.47656 77,77 0 0 0 0.65625,0.48243 77,77 0 0 0 5.5019531,3.99218 77,77 0 0 0 1.792969,1.06055 77,77 0 0 0 4.77539,2.7832 77,77 0 0 0 3.660157,1.79688 l 0.03711,-0.082 a 77,77 0 0 0 2.472656,0.98633 z"
       id="path1875"
       inkscape:connector-curvature="0" />
  </g>
  <g
     inkscape:groupmode="layer"
     id="g1904"
     inkscape:label="debug"
     style="display:inline">
    <circle
       r="77"
       cy="54"
       cx="54.000004"
       id="circle1894"
       style="display:inline;opacity:1;fill:#b0bec5;fill-opacity:1;stroke:none;stroke-width:2;stroke-linecap:round;stroke-linejoin:miter;stroke-miterlimit:4;stroke-dasharray:none;stroke-opacity:1;paint-order:normal;shape-rendering:crispEdges" />
    <path
       style="display:inline;fill:#cfd8dc;fill-opacity:1;stroke:none;stroke-width:1px;stroke-linecap:butt;stroke-linejoin:miter;stroke-opacity:1;shape-rendering:crispEdges"
       d="M 83.382812,-16.9375 54,54 125.07812,24.558594 A 77,77 0 0 0 108.36719,-0.3671875 l 0.0469,-0.046875 A 77,77 0 0 0 89.361328,-14.294922 77,77 0 0 0 88.160156,-14.904297 l -0.02148,0.04297 a 77,77 0 0 0 -4.75586,-2.076172 z"
       id="path1896"
       inkscape:connector-curvature="0" />
    <path
       inkscape:connector-curvature="0"
       id="path1898"
       d="M 24.558594,-17.078125 A 77,77 0 0 0 -0.37304688,-0.37304688 l -0.0410156,-0.0410156 a 77,77 0 0 0 -5.49414062,6.16992188 77,77 0 0 0 -0.2246094,0.3046875 77,77 0 0 0 -4.2480465,5.8554691 77,77 0 0 0 -0.822266,1.390625 77,77 0 0 0 -3.023437,5.1875 77,77 0 0 0 -1.71875,3.5 l 0.07812,0.03516 a 77,77 0 0 0 -1.042968,2.597656 l -0.205078,-0.08398 A 77,77 0 0 0 -23,54 a 77,77 0 0 0 3.935547,23.988281 77,77 0 0 0 0.267578,0.8125 l 0.02734,-0.0098 a 77,77 0 0 0 1.822265,4.595703 l -0.130859,0.05469 a 77,77 0 0 0 0.921875,1.935547 77,77 0 0 0 0.779297,1.640625 77,77 0 0 0 2.582031,4.986328 77,77 0 0 0 1.353516,2.236328 77,77 0 0 0 2.6249998,4.025391 77,77 0 0 0 2.0507812,2.732427 77,77 0 0 0 2.5625,3.18359 77,77 0 0 0 0.8261719,1.02734 l 0.0625,-0.0547 a 77,77 0 0 0 2.94140622,3.21875 l -0.0410156,0.041 a 77,77 0 0 0 6.14648438,5.47656 77,77 0 0 0 0.65625,0.48243 77,77 0 0 0 5.5019531,3.99218 77,77 0 0 0 1.792969,1.06055 77,77 0 0 0 4.77539,2.7832 77,77 0 0 0 3.660157,1.79688 l 0.03711,-0.082 a 77,77 0 0 0 2.472656,0.98633 l -0.08594,0.20507 A 77,77 0 0 0 54,131 a 77,77 0 0 0 23.982422,-3.93359 77,77 0 0 0 0.537109,-0.17579 l -0.0059,-0.0195 a 77,77 0 0 0 4.878906,-1.91406 l 0.04883,0.12109 a 77,77 0 0 0 1.666016,-0.79296 77,77 0 0 0 1.871094,-0.89063 77,77 0 0 0 4.783203,-2.45508 77,77 0 0 0 2.480469,-1.5 77,77 0 0 0 3.800781,-2.45703 77,77 0 0 0 3.96289,-2.97656 77,77 0 0 0 1.4082,-1.10547 77,77 0 0 0 0.55664,-0.43555 l -0.0351,-0.041 a 77,77 0 0 0 4.43554,-4.05274 l 0.043,0.043 a 77,77 0 0 0 10.01758,-12.404294 77,77 0 0 0 0.14648,-0.25 77,77 0 0 0 3.71094,-6.371094 77,77 0 0 0 0.34961,-0.675781 l -0.0293,-0.01367 a 77,77 0 0 0 2.36328,-5.300781 L 54,54 Z M 129.84961,66.751953 a 77,77 0 0 1 -0.0176,0.123047 77,77 0 0 0 0.0176,-0.123047 z"
       style="display:inline;fill:#78909c;fill-opacity:1;stroke:none;stroke-width:1px;stroke-linecap:butt;stroke-linejoin:miter;stroke-opacity:1;shape-rendering:crispEdges" />
    <path
       inkscape:connector-curvature="0"
       id="path1900"
       d="M -17.115234,24.542969 A 77,77 0 0 0 -23,54 a 77,77 0 0 0 3.935547,23.988281 77,77 0 0 0 0.267578,0.8125 l 0.02734,-0.0098 a 77,77 0 0 0 1.822265,4.595703 l -0.130859,0.05469 a 77,77 0 0 0 0.921875,1.935547 77,77 0 0 0 0.779297,1.640625 77,77 0 0 0 2.582031,4.986328 77,77 0 0 0 1.353516,2.236328 77,77 0 0 0 2.6249998,4.025391 77,77 0 0 0 2.0507812,2.732427 77,77 0 0 0 2.5625,3.18359 77,77 0 0 0 0.8261719,1.02734 l 0.0625,-0.0547 a 77,77 0 0 0 2.94140622,3.21875 l -0.0410156,0.041 a 77,77 0 0 0 6.14648438,5.47656 77,77 0 0 0 0.65625,0.48243 77,77 0 0 0 5.5019531,3.99218 77,77 0 0 0 1.792969,1.06055 77,77 0 0 0 4.77539,2.7832 77,77 0 0 0 3.660157,1.79688 l 0.03711,-0.082 a 77,77 0 0 0 2.472656,0.98633 l -0.08594,0.20507 A 77,77 0 0 0 54,131 a 77,77 0 0 0 23.982422,-3.93359 77,77 0 0 0 0.537109,-0.17579 l -0.0059,-0.0195 a 77,77 0 0 0 4.878906,-1.91406 L 54,54 Z M 129.84961,66.751953 a 77,77 0 0 1 -0.0176,0.123047 77,77 0 0 0 0.0176,-0.123047 z m -25.91406,45.671877 a 77,77 0 0 1 -0.52149,0.47656 77,77 0 0 0 0.55664,-0.43555 z m -1.92969,1.58203 a 77,77 0 0 1 -3.962891,2.97656 77,77 0 0 0 3.962891,-2.97656 z m -7.763672,5.43359 a 77,77 0 0 1 -2.480469,1.5 77,77 0 0 0 2.480469,-1.5 z m -7.263672,3.95508 a 77,77 0 0 1 -1.871094,0.89063 77,77 0 0 0 1.871094,-0.89063 z"
       style="display:inline;fill:#546e7a;fill-opacity:1;stroke:none;stroke-width:1px;stroke-linecap:butt;stroke-linejoin:miter;stroke-opacity:1;shape-rendering:crispEdges" />
    <path
       inkscape:connector-curvature="0"
       id="path1902"
       d="m 54,54 -71.078125,29.441406 a 77,77 0 0 0 16.70507812,24.931644 l -0.0410156,0.041 a 77,77 0 0 0 6.14648438,5.47656 77,77 0 0 0 0.65625,0.48243 77,77 0 0 0 5.5019531,3.99218 77,77 0 0 0 1.792969,1.06055 77,77 0 0 0 4.77539,2.7832 77,77 0 0 0 3.660157,1.79688 l 0.03711,-0.082 a 77,77 0 0 0 2.472656,0.98633 z"
       style="display:inline;fill:#37474f;fill-opacity:1;stroke:none;stroke-width:1px;stroke-linecap:butt;stroke-linejoin:miter;stroke-opacity:1;shape-rendering:crispEdges" />
  </g>
  <g
     inkscape:label="-- keylines --"
     inkscape:groupmode="layer"
     id="layer1"
     style="display:none"
     sodipodi:insensitive="true">
    <rect
       id="rect3750"
       width="72"
       height="72"
       x="18"
       y="18"
       style="opacity:0.25;fill:#ffffff"
       sodipodi:insensitive="true" />
    <circle
       style="opacity:0.25;fill:#ffffff"
       id="path4557"
       cx="54"
       cy="54"
       sodipodi:insensitive="true"
       r="33" />
    <circle
       style="opacity:0.25;fill:#ffffff"
       id="path4565"
       cx="54"
       cy="54"
       r="26"
       sodipodi:insensitive="true" />
  </g>
</svg>
