<?xml version="1.0" encoding="UTF-8" standalone="no"?>
<!-- Created with Inkscape (http://www.inkscape.org/) -->

<svg
   xmlns:dc="http://purl.org/dc/elements/1.1/"
   xmlns:cc="http://creativecommons.org/ns#"
   xmlns:rdf="http://www.w3.org/1999/02/22-rdf-syntax-ns#"
   xmlns:svg="http://www.w3.org/2000/svg"
   xmlns="http://www.w3.org/2000/svg"
   xmlns:sodipodi="http://sodipodi.sourceforge.net/DTD/sodipodi-0.dtd"
   xmlns:inkscape="http://www.inkscape.org/namespaces/inkscape"
   width="616"
   height="154"
   viewBox="0 0 616 154"
   version="1.1"
   id="svg43"
   style="shape-rendering:crispEdges"
   inkscape:version="0.92.4 (5da689c313, 2019-01-14)"
   sodipodi:docname="patreon.svg"
   inkscape:export-filename="/home/tughi/Projects/aggregator-next/patreon.png"
   inkscape:export-xdpi="498.70129"
   inkscape:export-ydpi="498.70129">
  <defs
     id="defs37">
    <clipPath
       clipPathUnits="userSpaceOnUse"
       id="clipPath5166">
      <path
         style="opacity:1;fill:#ff00ff;fill-opacity:1;stroke:none;stroke-width:1;stroke-linecap:round;stroke-linejoin:miter;stroke-miterlimit:4;stroke-dasharray:none;stroke-opacity:1;paint-order:normal"
         d="m 54,25 a 29,29 0 0 0 -4.810547,0.408203 l -0.605469,3.193359 a 26,26 0 0 0 -8.738281,3.59375 l -2.636719,-1.794921 a 29,29 0 0 0 -6.818359,6.796875 l 1.816406,2.666015 a 26,26 0 0 0 -3.626953,8.72461 l -3.144531,0.597656 A 29,29 0 0 0 25,54 a 29,29 0 0 0 0.408203,4.810547 l 3.193359,0.605469 a 26,26 0 0 0 3.59375,8.738281 l -1.794921,2.636719 a 29,29 0 0 0 6.796875,6.818359 l 2.666015,-1.816406 a 26,26 0 0 0 8.72461,3.626953 l 0.597656,3.144531 A 29,29 0 0 0 54,83 29,29 0 0 0 58.810547,82.591797 l 0.605469,-3.193359 a 26,26 0 0 0 8.738281,-3.59375 l 2.636719,1.794921 a 29,29 0 0 0 6.818359,-6.796875 l -1.816406,-2.666015 a 26,26 0 0 0 3.626953,-8.72461 l 3.144531,-0.597656 A 29,29 0 0 0 83,54 29,29 0 0 0 82.591797,49.189453 l -3.193359,-0.605469 a 26,26 0 0 0 -3.59375,-8.738281 l 1.794921,-2.636719 a 29,29 0 0 0 -6.796875,-6.818359 l -2.666015,1.816406 a 26,26 0 0 0 -8.72461,-3.626953 L 58.814453,25.435547 A 29,29 0 0 0 54,25 Z m 0,10 A 19,19 0 0 1 73,54 19,19 0 0 1 54,73 19,19 0 0 1 35,54 19,19 0 0 1 54,35 Z"
         id="path5168"
         inkscape:connector-curvature="0" />
    </clipPath>
    <clipPath
       clipPathUnits="userSpaceOnUse"
       id="clipPath5332">
      <path
         id="path5334"
         d="m 54,25 a 29,29 0 0 0 -4.810547,0.408203 l -0.605469,3.193359 a 26,26 0 0 0 -8.738281,3.59375 l -2.636719,-1.794921 a 29,29 0 0 0 -6.818359,6.796875 l 1.816406,2.666015 a 26,26 0 0 0 -3.626953,8.72461 l -3.144531,0.597656 A 29,29 0 0 0 25,54 a 29,29 0 0 0 0.408203,4.810547 l 3.193359,0.605469 a 26,26 0 0 0 3.59375,8.738281 l -1.794921,2.636719 a 29,29 0 0 0 6.796875,6.818359 l 2.666015,-1.816406 a 26,26 0 0 0 8.72461,3.626953 l 0.597656,3.144531 A 29,29 0 0 0 54,83 29,29 0 0 0 58.810547,82.591797 l 0.605469,-3.193359 a 26,26 0 0 0 8.738281,-3.59375 l 2.636719,1.794921 a 29,29 0 0 0 6.818359,-6.796875 l -1.816406,-2.666015 a 26,26 0 0 0 3.626953,-8.72461 l 3.144531,-0.597656 A 29,29 0 0 0 83,54 29,29 0 0 0 82.591797,49.189453 l -3.193359,-0.605469 a 26,26 0 0 0 -3.59375,-8.738281 l 1.794921,-2.636719 a 29,29 0 0 0 -6.796875,-6.818359 l -2.666015,1.816406 a 26,26 0 0 0 -8.72461,-3.626953 L 58.814453,25.435547 A 29,29 0 0 0 54,25 Z"
         style="opacity:1;fill:#ffffff;fill-opacity:1;stroke:none;stroke-width:1;stroke-linecap:round;stroke-linejoin:miter;stroke-miterlimit:4;stroke-dasharray:none;stroke-opacity:1;paint-order:normal"
         inkscape:connector-curvature="0" />
    </clipPath>
  </defs>
  <sodipodi:namedview
     id="base"
     pagecolor="#ffffff"
     bordercolor="#666666"
     borderopacity="1.0"
     inkscape:pageopacity="0.0"
     inkscape:pageshadow="2"
     inkscape:zoom="2.6915584"
     inkscape:cx="308"
     inkscape:cy="77"
     inkscape:document-units="px"
     inkscape:current-layer="layer1"
     showgrid="false"
     units="px"
     width="108px"
     borderlayer="true"
     inkscape:showpageshadow="false"
     inkscape:pagecheckerboard="true"
     showguides="false"
     inkscape:guide-bbox="true"
     inkscape:window-width="2560"
     inkscape:window-height="1376"
     inkscape:window-x="0"
     inkscape:window-y="27"
     inkscape:window-maximized="1"
     gridtolerance="20"
     inkscape:measure-start="51.0319,54"
     inkscape:measure-end="56.7649,54"
     fit-margin-top="0"
     fit-margin-left="0"
     fit-margin-right="0"
     fit-margin-bottom="0">
    <inkscape:grid
       type="xygrid"
       id="grid45"
       spacingx="1"
       spacingy="1"
       originx="77"
       originy="77" />
    <sodipodi:guide
       position="337.38281,147.9375"
       orientation="70.9375,-29.38281"
       id="guide2560"
       inkscape:locked="false" />
    <sodipodi:guide
       position="308,76.999998"
       orientation="-29.441406,71.078117"
       id="guide2562"
       inkscape:locked="false" />
    <sodipodi:guide
       position="378.97256,47.601518"
       orientation="-29.39848,-70.972557"
       id="guide2598"
       inkscape:locked="false" />
    <sodipodi:guide
       position="308,76.999998"
       orientation="-71.078125,-29.441407"
       id="guide2600"
       inkscape:locked="false" />
    <sodipodi:guide
       position="-5,390"
       orientation="626,0"
       id="guide2661"
       inkscape:locked="false" />
    <sodipodi:guide
       position="-5,-236"
       orientation="0,626"
       id="guide2663"
       inkscape:locked="false" />
    <sodipodi:guide
       position="621,-236"
       orientation="-626,0"
       id="guide2665"
       inkscape:locked="false" />
    <sodipodi:guide
       position="621,390"
       orientation="0,-626"
       id="guide2667"
       inkscape:locked="false" />
  </sodipodi:namedview>
  <metadata
     id="metadata40">
    <rdf:RDF>
      <cc:Work
         rdf:about="">
        <dc:format>image/svg+xml</dc:format>
        <dc:type
           rdf:resource="http://purl.org/dc/dcmitype/StillImage" />
        <dc:title></dc:title>
      </cc:Work>
    </rdf:RDF>
  </metadata>
  <g
     inkscape:groupmode="layer"
     id="layer1"
     inkscape:label="Background">
    <rect
       style="opacity:1;fill:#ffcc80;fill-opacity:1;stroke:none;stroke-width:0.5;stroke-linecap:butt;stroke-linejoin:round;stroke-miterlimit:4;stroke-dasharray:none;stroke-dashoffset:0;stroke-opacity:1;paint-order:normal"
       id="rect2657"
       width="626"
       height="626"
       x="-5"
       y="-236" />
    <path
       style="fill:#ffe0b2;stroke:none;stroke-width:1px;stroke-linecap:butt;stroke-linejoin:miter;stroke-opacity:1;fill-opacity:1"
       d="M 437.6468,-236 308,77.000002 621,-52.648341 V -236 Z"
       id="path2677"
       inkscape:connector-curvature="0" />
    <path
       style="fill:#ffa726;stroke:none;stroke-width:1px;stroke-linecap:butt;stroke-linejoin:miter;stroke-opacity:1;fill-opacity:1"
       d="M 178.35167,-236 308,77.000001 621,206.65186 V 390 H -5 v -626 z"
       id="path2675"
       inkscape:connector-curvature="0" />
    <path
       style="fill:#fb8c00;fill-opacity:1;stroke:none;stroke-width:1px;stroke-linecap:butt;stroke-linejoin:miter;stroke-opacity:1"
       d="M -5,390 H 437.64833 L 308.12919,77.000002 -5,-52.651862 Z"
       id="path2655"
       inkscape:connector-curvature="0"
       sodipodi:nodetypes="ccccc" />
    <path
       style="fill:#ef6c00;stroke:none;stroke-width:1px;stroke-linecap:butt;stroke-linejoin:miter;stroke-opacity:1;fill-opacity:1"
       d="M -5,206.64834 308,77.000001 178.3532,390 H -5 Z"
       id="path2671"
       inkscape:connector-curvature="0" />
  </g>
  <g
     style="display:inline"
     inkscape:label="Launcher"
     id="g5813"
     inkscape:groupmode="layer"
     sodipodi:insensitive="true">
    <path
       id="path1806"
       d="m 307.33984,66.042969 a 10.980469,10.980469 0 0 0 -6.82422,2.933593 c 0.1792,-0.0063 0.35438,-0.02734 0.53516,-0.02734 8.30796,0 15,6.692039 15,15 0,0.17815 -0.0212,0.35073 -0.0273,0.527343 a 10.980469,10.980469 0 0 0 2.92578,-6.839843 c -1.91475,-5.40379 -6.20239,-9.685861 -11.60938,-11.593753 z m -6.28906,5.90625 c -1.02903,0 -2.02397,0.144413 -2.97851,0.390625 A 10.980469,10.980469 0 0 0 297.01953,77 a 10.980469,10.980469 0 0 0 0.002,0.03516 c 1.18204,-0.68654 2.55452,-1.085937 4.0293,-1.085937 4.44197,0 8,3.558032 8,8 0,1.474774 -0.3994,2.84726 -1.08594,4.029297 a 10.980469,10.980469 0 0 0 0.0352,0.002 10.980469,10.980469 0 0 0 4.66016,-1.050781 c 0.24651,-0.955096 0.39062,-1.950781 0.39062,-2.980469 0,-6.603728 -5.39627,-12 -12,-12 z M 302,79.5 c -1.933,0 -3.5,1.567003 -3.5,3.5 0,1.932997 1.567,3.5 3.5,3.5 1.933,0 3.5,-1.567003 3.5,-3.5 0,-1.932997 -1.567,-3.5 -3.5,-3.5 z"
       style="opacity:1;fill:#eeeeee;fill-opacity:1;stroke:none;stroke-width:1;stroke-linecap:butt;stroke-linejoin:round;stroke-miterlimit:4;stroke-dasharray:none;stroke-dashoffset:0;stroke-opacity:1;paint-order:normal"
       inkscape:connector-curvature="0" />
    <circle
       style="opacity:1;fill:#424242;fill-opacity:1;stroke:none;stroke-width:2;stroke-linecap:round;stroke-linejoin:round;stroke-miterlimit:4;stroke-dasharray:none;stroke-opacity:1;paint-order:normal"
       id="circle5807"
       cx="308"
       cy="77"
       r="18" />
    <path
       style="opacity:0.5;fill:#212121;fill-opacity:1;stroke:#212121;stroke-width:0.89999998;stroke-linecap:round;stroke-linejoin:round;stroke-miterlimit:4;stroke-dasharray:none;stroke-opacity:1;paint-order:normal;shape-rendering:crispEdges"
       d="m 308.4,51.4 a 26,26 0 0 0 -4.25977,0.359375 l -0.47461,3.160156 a 23,23 0 0 0 -7.83007,3.22461 l -2.53321,-1.873047 a 26,26 0 0 0 -6.03711,6.021484 l 1.88672,2.554688 A 23,23 0 0 0 285.9,72.667578 l -3.11719,0.46875 A 26,26 0 0 0 282.4,77.4 a 26,26 0 0 0 0.35937,4.259766 l 3.16016,0.474609 a 23,23 0 0 0 3.22461,7.830078 l -1.87305,2.533203 a 26,26 0 0 0 6.02149,6.03711 l 2.55469,-1.886719 A 23,23 0 0 0 303.66758,99.9 l 0.46875,3.11719 A 26,26 0 0 0 308.4,103.4 a 26,26 0 0 0 4.25977,-0.35937 l 0.4746,-3.160161 a 23,23 0 0 0 7.83008,-3.22461 l 2.53321,1.873047 a 26,26 0 0 0 6.03711,-6.021484 l -1.88672,-2.554688 A 23,23 0 0 0 330.9,82.132422 l 3.11719,-0.46875 A 26,26 0 0 0 334.4,77.4 26,26 0 0 0 334.04062,73.140234 l -3.16015,-0.474609 a 23,23 0 0 0 -3.22461,-7.830078 l 1.87305,-2.533203 a 26,26 0 0 0 -6.02149,-6.03711 l -2.55469,1.886719 A 23,23 0 0 0 313.13242,54.9 l -0.46875,-3.117188 A 26,26 0 0 0 308.4,51.4 Z m 0,9 a 17,17 0 0 1 17,17 17,17 0 0 1 -17,17 17,17 0 0 1 -17,-17 17,17 0 0 1 17,-17 z"
       id="path5825"
       inkscape:connector-curvature="0" />
    <path
       inkscape:connector-curvature="0"
       id="path5823"
       d="m 307.8,50.8 a 26,26 0 0 0 -4.25977,0.359375 l -0.47461,3.160156 a 23,23 0 0 0 -7.83007,3.22461 l -2.53321,-1.873047 a 26,26 0 0 0 -6.03711,6.021484 l 1.88672,2.554688 A 23,23 0 0 0 285.3,72.067578 l -3.11719,0.46875 A 26,26 0 0 0 281.8,76.8 a 26,26 0 0 0 0.35937,4.259766 l 3.16016,0.474609 a 23,23 0 0 0 3.22461,7.830078 l -1.87305,2.533203 a 26,26 0 0 0 6.02149,6.03711 l 2.55469,-1.886719 A 23,23 0 0 0 303.06758,99.3 l 0.46875,3.11719 A 26,26 0 0 0 307.8,102.8 a 26,26 0 0 0 4.25977,-0.35938 l 0.4746,-3.160151 a 23,23 0 0 0 7.83008,-3.22461 l 2.53321,1.873047 a 26,26 0 0 0 6.03711,-6.021484 l -1.88672,-2.554688 A 23,23 0 0 0 330.3,81.532422 l 3.11719,-0.46875 A 26,26 0 0 0 333.8,76.8 26,26 0 0 0 333.44062,72.540234 l -3.16015,-0.474609 a 23,23 0 0 0 -3.22461,-7.830078 l 1.87305,-2.533203 a 26,26 0 0 0 -6.02149,-6.03711 l -2.55469,1.886719 A 23,23 0 0 0 312.53242,54.3 l -0.46875,-3.117188 A 26,26 0 0 0 307.8,50.8 Z m 0,9 a 17,17 0 0 1 17,17 17,17 0 0 1 -17,17 17,17 0 0 1 -17,-17 17,17 0 0 1 17,-17 z"
       style="opacity:1;fill:#ffffff;fill-opacity:1;stroke:#ffffff;stroke-width:0.89999998;stroke-linecap:round;stroke-linejoin:round;stroke-miterlimit:4;stroke-dasharray:none;stroke-opacity:1;paint-order:normal;shape-rendering:crispEdges" />
    <path
       style="color:#000000;font-style:normal;font-variant:normal;font-weight:normal;font-stretch:normal;font-size:medium;line-height:normal;font-family:sans-serif;font-variant-ligatures:normal;font-variant-position:normal;font-variant-caps:normal;font-variant-numeric:normal;font-variant-alternates:normal;font-feature-settings:normal;text-indent:0;text-align:start;text-decoration:none;text-decoration-line:none;text-decoration-style:solid;text-decoration-color:#000000;letter-spacing:normal;word-spacing:normal;text-transform:none;writing-mode:lr-tb;direction:ltr;text-orientation:mixed;dominant-baseline:auto;baseline-shift:baseline;text-anchor:start;white-space:normal;shape-padding:0;clip-rule:nonzero;display:inline;overflow:visible;visibility:visible;opacity:0.5;isolation:auto;mix-blend-mode:normal;color-interpolation:sRGB;color-interpolation-filters:linearRGB;solid-color:#000000;solid-opacity:1;vector-effect:none;fill:#212121;fill-opacity:1;fill-rule:nonzero;stroke:none;stroke-width:0.5;stroke-linecap:butt;stroke-linejoin:round;stroke-miterlimit:4;stroke-dasharray:none;stroke-dashoffset:0;stroke-opacity:1;paint-order:normal;color-rendering:auto;image-rendering:auto;shape-rendering:auto;text-rendering:auto;enable-background:accumulate"
       d="m 307.76172,66.814453 c -1.96304,0.137771 -3.75901,0.923846 -5.33789,2.03125 a 0.250025,0.250025 0 0 0 0.1289,0.455078 c 7.62219,0.500865 13.63889,6.515848 14.14454,14.136719 a 0.250025,0.250025 0 0 0 0.45507,0.126953 c 1.10705,-1.583111 1.89198,-3.380837 2.02539,-5.347656 a 0.250025,0.250025 0 0 0 -0.0156,-0.103516 c -1.89525,-5.241345 -6.05427,-9.394563 -11.29882,-11.283203 a 0.250025,0.250025 0 0 0 -0.10156,-0.01563 z m -6.21094,5.884766 c -0.92474,0 -1.81096,0.145918 -2.66797,0.349609 a 0.250025,0.250025 0 0 0 -0.16992,0.142578 c -0.49885,1.125715 -0.76771,2.323991 -0.85937,3.541016 a 0.250025,0.250025 0 0 0 0.35156,0.248047 c 1.03806,-0.465231 2.14693,-0.78125 3.3457,-0.78125 4.57479,0 8.25,3.675208 8.25,8.25 0,1.19877 -0.31602,2.307645 -0.78125,3.345703 a 0.250025,0.250025 0 0 0 0.24805,0.351562 c 1.21767,-0.09126 2.41672,-0.360605 3.54297,-0.859375 a 0.250025,0.250025 0 0 0 0.14257,-0.169921 c 0.20364,-0.857118 0.34766,-1.743541 0.34766,-2.667969 0,-6.467403 -5.2826,-11.75 -11.75,-11.75 z M 302.5,80.25 c -1.79681,0 -3.25,1.453188 -3.25,3.25 0,1.796812 1.45319,3.25 3.25,3.25 1.79681,0 3.25,-1.453188 3.25,-3.25 0,-1.796812 -1.45319,-3.25 -3.25,-3.25 z"
       id="path1837"
       inkscape:connector-curvature="0" />
    <path
       style="opacity:1;fill:#eeeeee;fill-opacity:1;stroke:none;stroke-width:0.89999998;stroke-linecap:round;stroke-linejoin:round;stroke-miterlimit:4;stroke-dasharray:none;stroke-opacity:1;paint-order:normal;shape-rendering:crispEdges"
       d="m 308,51 a 26,26 0 0 0 -4.25977,0.359375 l -0.47461,3.160156 a 23,23 0 0 0 -7.83007,3.22461 l -2.53321,-1.873047 a 26,26 0 0 0 -6.03711,6.021484 l 1.88672,2.554688 A 23,23 0 0 0 285.5,72.267578 l -3.11719,0.46875 A 26,26 0 0 0 282,77 a 26,26 0 0 0 0.35937,4.259766 l 3.16016,0.474609 a 23,23 0 0 0 3.22461,7.830078 l -1.87305,2.533203 a 26,26 0 0 0 6.02149,6.03711 l 2.55469,-1.886719 A 23,23 0 0 0 303.26758,99.5 l 0.46875,3.11719 A 26,26 0 0 0 308,103 a 26,26 0 0 0 4.25977,-0.35937 l 0.4746,-3.160161 a 23,23 0 0 0 7.83008,-3.22461 l 2.53321,1.873047 a 26,26 0 0 0 6.03711,-6.021484 l -1.88672,-2.554688 A 23,23 0 0 0 330.5,81.732422 l 3.11719,-0.46875 A 26,26 0 0 0 334,77 26,26 0 0 0 333.64062,72.740234 l -3.16015,-0.474609 a 23,23 0 0 0 -3.22461,-7.830078 l 1.87305,-2.533203 a 26,26 0 0 0 -6.02149,-6.03711 l -2.55469,1.886719 A 23,23 0 0 0 312.73242,54.5 l -0.46875,-3.117188 A 26,26 0 0 0 308,51 Z m 0,9 a 17,17 0 0 1 17,17 17,17 0 0 1 -17,17 17,17 0 0 1 -17,-17 17,17 0 0 1 17,-17 z"
       id="path5797"
       inkscape:connector-curvature="0" />
    <path
       inkscape:connector-curvature="0"
       id="path1840"
       d="m 307.06172,66.114453 c -1.96304,0.137771 -3.75901,0.923846 -5.33789,2.03125 a 0.250025,0.250025 0 0 0 0.1289,0.455078 c 7.62219,0.500865 13.63889,6.515848 14.14454,14.136719 a 0.250025,0.250025 0 0 0 0.45507,0.126953 c 1.10705,-1.583111 1.89198,-3.380837 2.02539,-5.347656 a 0.250025,0.250025 0 0 0 -0.0156,-0.103516 c -1.89525,-5.241345 -6.05427,-9.394563 -11.29882,-11.283203 a 0.250025,0.250025 0 0 0 -0.10156,-0.01563 z m -6.21094,5.884766 c -0.92474,0 -1.81096,0.145918 -2.66797,0.349609 a 0.250025,0.250025 0 0 0 -0.16992,0.142578 c -0.49885,1.125715 -0.76771,2.323991 -0.85937,3.541016 a 0.250025,0.250025 0 0 0 0.35156,0.248047 c 1.03806,-0.465231 2.14693,-0.78125 3.3457,-0.78125 4.57479,0 8.25,3.675208 8.25,8.25 0,1.19877 -0.31602,2.307645 -0.78125,3.345703 a 0.250025,0.250025 0 0 0 0.24805,0.351562 c 1.21767,-0.09126 2.41672,-0.360605 3.54297,-0.859375 a 0.250025,0.250025 0 0 0 0.14257,-0.169921 c 0.20364,-0.857118 0.34766,-1.743541 0.34766,-2.667969 0,-6.467403 -5.2826,-11.75 -11.75,-11.75 z M 301.8,79.55 c -1.79681,0 -3.25,1.453188 -3.25,3.25 0,1.796812 1.45319,3.25 3.25,3.25 1.79681,0 3.25,-1.453188 3.25,-3.25 0,-1.796812 -1.45319,-3.25 -3.25,-3.25 z"
       style="color:#000000;font-style:normal;font-variant:normal;font-weight:normal;font-stretch:normal;font-size:medium;line-height:normal;font-family:sans-serif;font-variant-ligatures:normal;font-variant-position:normal;font-variant-caps:normal;font-variant-numeric:normal;font-variant-alternates:normal;font-feature-settings:normal;text-indent:0;text-align:start;text-decoration:none;text-decoration-line:none;text-decoration-style:solid;text-decoration-color:#000000;letter-spacing:normal;word-spacing:normal;text-transform:none;writing-mode:lr-tb;direction:ltr;text-orientation:mixed;dominant-baseline:auto;baseline-shift:baseline;text-anchor:start;white-space:normal;shape-padding:0;clip-rule:nonzero;display:inline;overflow:visible;visibility:visible;opacity:1;isolation:auto;mix-blend-mode:normal;color-interpolation:sRGB;color-interpolation-filters:linearRGB;solid-color:#000000;solid-opacity:1;vector-effect:none;fill:#ffffff;fill-opacity:1;fill-rule:nonzero;stroke:none;stroke-width:0.5;stroke-linecap:butt;stroke-linejoin:round;stroke-miterlimit:4;stroke-dasharray:none;stroke-dashoffset:0;stroke-opacity:1;paint-order:normal;color-rendering:auto;image-rendering:auto;shape-rendering:auto;text-rendering:auto;enable-background:accumulate" />
    <path
       style="color:#000000;font-style:normal;font-variant:normal;font-weight:normal;font-stretch:normal;font-size:medium;line-height:normal;font-family:sans-serif;font-variant-ligatures:normal;font-variant-position:normal;font-variant-caps:normal;font-variant-numeric:normal;font-variant-alternates:normal;font-feature-settings:normal;text-indent:0;text-align:start;text-decoration:none;text-decoration-line:none;text-decoration-style:solid;text-decoration-color:#000000;letter-spacing:normal;word-spacing:normal;text-transform:none;writing-mode:lr-tb;direction:ltr;text-orientation:mixed;dominant-baseline:auto;baseline-shift:baseline;text-anchor:start;white-space:normal;shape-padding:0;clip-rule:nonzero;display:inline;overflow:visible;visibility:visible;opacity:1;isolation:auto;mix-blend-mode:normal;color-interpolation:sRGB;color-interpolation-filters:linearRGB;solid-color:#000000;solid-opacity:1;vector-effect:none;fill:#eeeeee;fill-opacity:1;fill-rule:nonzero;stroke:none;stroke-width:1;stroke-linecap:butt;stroke-linejoin:round;stroke-miterlimit:4;stroke-dasharray:none;stroke-dashoffset:0;stroke-opacity:1;paint-order:normal;color-rendering:auto;image-rendering:auto;shape-rendering:auto;text-rendering:auto;enable-background:accumulate"
       d="m 307.2793,66.564453 c -1.90741,0.133867 -3.65945,0.898132 -5.21094,1.986328 7.74442,0.508897 13.86515,6.628023 14.37891,14.371094 1.08788,-1.555697 1.85083,-3.311602 1.98046,-5.222656 -1.86985,-5.171071 -5.97423,-9.27146 -11.14843,-11.134766 z m -6.22852,5.884766 c -0.89825,0 -1.76379,0.142774 -2.60937,0.34375 -0.48566,1.095946 -0.74804,2.266098 -0.83789,3.458984 1.06019,-0.475151 2.20456,-0.802734 3.44726,-0.802734 4.70897,0 8.5,3.791031 8.5,8.5 0,1.242704 -0.32758,2.387072 -0.80273,3.447265 1.19342,-0.08944 2.3644,-0.352279 3.46093,-0.83789 0.20085,-0.845365 0.3418,-1.711099 0.3418,-2.609375 0,-6.331343 -5.16866,-11.5 -11.5,-11.5 z M 302,80 c -1.66278,0 -3,1.337223 -3,3 0,1.662777 1.33722,3 3,3 1.66278,0 3,-1.337223 3,-3 0,-1.662777 -1.33722,-3 -3,-3 z"
       id="path1818"
       inkscape:connector-curvature="0" />
  </g>
</svg>
