<?xml version="1.0" encoding="UTF-8"?>
<!-- Created with Inkscape (http://www.inkscape.org/) -->
<svg width="1024" height="256" shape-rendering="crispEdges" version="1.1" viewBox="0 0 1024 256" xmlns="http://www.w3.org/2000/svg" xmlns:cc="http://creativecommons.org/ns#" xmlns:dc="http://purl.org/dc/elements/1.1/" xmlns:rdf="http://www.w3.org/1999/02/22-rdf-syntax-ns#">
 <metadata>
  <rdf:RDF>
   <cc:Work rdf:about="">
    <dc:format>image/svg+xml</dc:format>
    <dc:type rdf:resource="http://purl.org/dc/dcmitype/StillImage"/>
    <dc:title/>
    <cc:license rdf:resource=""/>
   </cc:Work>
  </rdf:RDF>
 </metadata>
 <g transform="translate(0,102)">
  <g transform="matrix(1.6613 0 0 1.6613 .30669 -101.92)">
   <rect x="-5" y="-236" width="626" height="626" fill="#ffcc80" style="paint-order:normal"/>
   <path d="m437.65-236-129.65 313 313-129.65v-183.35z" fill="#ffe0b2"/>
   <path d="m178.35-236 129.65 313 313 129.65v183.35h-626v-626z" fill="#ffa726"/>
   <path d="m-5 390h442.65l-129.52-313-313.13-129.65z" fill="#fb8c00"/>
   <path d="m-5 206.65 313-129.65-129.65 313h-183.35z" fill="#ef6c00"/>
   <g transform="translate(-138.22 -143.69)" shape-rendering="geometricPrecision">
    <path d="m445.56 209.73a10.98 10.98 0 0 0-6.8242 2.9336c0.1792-6e-3 0.35438-0.0273 0.53516-0.0273 8.308 0 15 6.692 15 15 0 0.17815-0.0212 0.35073-0.0273 0.52734a10.98 10.98 0 0 0 2.9258-6.8398c-1.9148-5.4038-6.2024-9.6859-11.609-11.594zm-6.2891 5.9062c-1.029 0-2.024 0.14442-2.9785 0.39063a10.98 10.98 0 0 0-1.0527 4.6602 10.98 10.98 0 0 0 2e-3 0.0352c1.182-0.68654 2.5545-1.0859 4.0293-1.0859 4.442 0 8 3.558 8 8 0 1.4748-0.3994 2.8473-1.0859 4.0293a10.98 10.98 0 0 0 0.0352 2e-3 10.98 10.98 0 0 0 4.6602-1.0508c0.24651-0.95509 0.39062-1.9508 0.39062-2.9805 0-6.6037-5.3963-12-12-12zm0.94922 7.5508c-1.933 0-3.5 1.567-3.5 3.5 0 1.933 1.567 3.5 3.5 3.5s3.5-1.567 3.5-3.5c0-1.933-1.567-3.5-3.5-3.5z" fill="#eee" style="paint-order:normal"/>
    <circle cx="446.22" cy="220.69" r="18" fill="#424242" shape-rendering="crispEdges" style="paint-order:normal"/>
    <path d="m446.71 210.2a11 11 0 0 0-6.3164 2.0117 15 15 0 0 1 0.3164-0.0117 15 15 0 0 1 15 15 15 15 0 0 1-0.0176 0.33593 11 11 0 0 0 2.0176-6.3359 11 11 0 0 0-11-11zm-6 5.5a11.5 11.5 0 0 0-3.875 0.68359 11 11 0 0 0-1.1172 4.5664 8 8 0 0 1 4.9922-1.75 8 8 0 0 1 8 8 8 8 0 0 1-1.7539 4.9863 11 11 0 0 0 4.5625-1.1016 11.5 11.5 0 0 0 0.6914-3.8848 11.5 11.5 0 0 0-11.5-11.5zm0 7.5a4 4 0 0 0-4 4 4 4 0 0 0 4 4 4 4 0 0 0 4-4 4 4 0 0 0-4-4z" fill="#212121" opacity=".5" style="paint-order:normal"/>
    <path d="m446.21 209.7a11 11 0 0 0-6.3164 2.0117 15 15 0 0 1 0.3164-0.0117 15 15 0 0 1 15 15 15 15 0 0 1-0.0176 0.33594 11 11 0 0 0 2.0176-6.3359 11 11 0 0 0-11-11zm-6 5.5a11.5 11.5 0 0 0-3.875 0.68359 11 11 0 0 0-1.1172 4.5664 8 8 0 0 1 4.9922-1.75 8 8 0 0 1 8 8 8 8 0 0 1-1.7539 4.9863 11 11 0 0 0 4.5625-1.1016 11.5 11.5 0 0 0 0.6914-3.8848 11.5 11.5 0 0 0-11.5-11.5zm0 7.5a4 4 0 0 0-4 4 4 4 0 0 0 4 4 4 4 0 0 0 4-4 4 4 0 0 0-4-4z" fill="#eee" style="paint-order:normal"/>
    <path d="m446.62 195.09a26 26 0 0 0-4.2598 0.35938l-0.47461 3.1602a23 23 0 0 0-7.8301 3.2246l-2.5332-1.873a26 26 0 0 0-6.0371 6.0215l1.8867 2.5547a23 23 0 0 0-3.252 7.8203l-3.1172 0.46875a26 26 0 0 0-0.38281 4.2637 26 26 0 0 0 0.35937 4.2598l3.1602 0.47461a23 23 0 0 0 3.2246 7.8301l-1.873 2.5332a26 26 0 0 0 6.0215 6.0371l2.5547-1.8867a23 23 0 0 0 7.8203 3.252l0.46875 3.1172a26 26 0 0 0 4.2637 0.38281 26 26 0 0 0 4.2598-0.35937l0.47461-3.1602a23 23 0 0 0 7.8301-3.2246l2.5332 1.873a26 26 0 0 0 6.0371-6.0215l-1.8867-2.5547a23 23 0 0 0 3.252-7.8203l3.1172-0.46875a26 26 0 0 0 0.38281-4.2637 26 26 0 0 0-0.35938-4.2598l-3.1602-0.47461a23 23 0 0 0-3.2246-7.8301l1.873-2.5332a26 26 0 0 0-6.0215-6.0371l-2.5547 1.8867a23 23 0 0 0-7.8203-3.252l-0.46875-3.1172a26 26 0 0 0-4.2637-0.38282zm0 9a17 17 0 0 1 17 17 17 17 0 0 1-17 17 17 17 0 0 1-17-17 17 17 0 0 1 17-17z" fill="#212121" opacity=".5" stroke="#212121" stroke-linecap="round" stroke-linejoin="round" stroke-width=".9" style="paint-order:normal"/>
    <path d="m446.02 194.49a26 26 0 0 0-4.2598 0.35938l-0.47461 3.1602a23 23 0 0 0-7.8301 3.2246l-2.5332-1.873a26 26 0 0 0-6.0371 6.0215l1.8867 2.5547a23 23 0 0 0-3.252 7.8203l-3.1172 0.46875a26 26 0 0 0-0.38281 4.2637 26 26 0 0 0 0.35937 4.2598l3.1602 0.47461a23 23 0 0 0 3.2246 7.8301l-1.873 2.5332a26 26 0 0 0 6.0215 6.0371l2.5547-1.8867a23 23 0 0 0 7.8203 3.252l0.46875 3.1172a26 26 0 0 0 4.2637 0.38281 26 26 0 0 0 4.2598-0.35937l0.47461-3.1602a23 23 0 0 0 7.8301-3.2246l2.5332 1.873a26 26 0 0 0 6.0371-6.0215l-1.8867-2.5547a23 23 0 0 0 3.252-7.8203l3.1172-0.46875a26 26 0 0 0 0.38281-4.2637 26 26 0 0 0-0.35938-4.2598l-3.1602-0.47461a23 23 0 0 0-3.2246-7.8301l1.873-2.5332a26 26 0 0 0-6.0215-6.0371l-2.5547 1.8867a23 23 0 0 0-7.8203-3.252l-0.46875-3.1172a26 26 0 0 0-4.2637-0.38282zm0 9a17 17 0 0 1 17 17 17 17 0 0 1-17 17 17 17 0 0 1-17-17 17 17 0 0 1 17-17z" fill="#fff" stroke="#fff" stroke-linecap="round" stroke-linejoin="round" stroke-width=".9" style="paint-order:normal"/>
    <path d="m446.22 194.69a26 26 0 0 0-4.2598 0.35938l-0.47461 3.1602a23 23 0 0 0-7.8301 3.2246l-2.5332-1.873a26 26 0 0 0-6.0371 6.0215l1.8867 2.5547a23 23 0 0 0-3.252 7.8203l-3.1172 0.46875a26 26 0 0 0-0.38281 4.2637 26 26 0 0 0 0.35937 4.2598l3.1602 0.47461a23 23 0 0 0 3.2246 7.8301l-1.873 2.5332a26 26 0 0 0 6.0215 6.0371l2.5547-1.8867a23 23 0 0 0 7.8203 3.252l0.46875 3.1172a26 26 0 0 0 4.2637 0.38281 26 26 0 0 0 4.2598-0.35937l0.47461-3.1602a23 23 0 0 0 7.8301-3.2246l2.5332 1.873a26 26 0 0 0 6.0371-6.0215l-1.8867-2.5547a23 23 0 0 0 3.252-7.8203l3.1172-0.46875a26 26 0 0 0 0.38281-4.2637 26 26 0 0 0-0.35938-4.2598l-3.1602-0.47461a23 23 0 0 0-3.2246-7.8301l1.873-2.5332a26 26 0 0 0-6.0215-6.0371l-2.5547 1.8867a23 23 0 0 0-7.8203-3.252l-0.46875-3.1172a26 26 0 0 0-4.2637-0.38282zm0 9a17 17 0 0 1 17 17 17 17 0 0 1-17 17 17 17 0 0 1-17-17 17 17 0 0 1 17-17z" fill="#eee" style="paint-order:normal"/>
   </g>
  </g>
 </g>
</svg>
